<svg width="200" height="200" viewBox="0 0 200 200" fill="none" xmlns="http://www.w3.org/2000/svg">
<path fill-rule="evenodd" clip-rule="evenodd" d="M100 150C72.3858 150 50 127.614 50 100C50 72.3858 72.3858 50 100 50C113.261 50 125.979 55.2678 135.355 64.6447C144.732 74.0215 150 86.7392 150 100C150 127.614 127.614 150 100 150ZM125.504 79.4995L129.004 82.9995L90.0039 121L66.5039 97.9995L70.0039 94.4995L90.0039 114L125.504 79.4995ZM100 55C124.853 55 145 75.1472 145 100C145 124.853 124.853 145 100 145C75.1472 145 55 124.853 55 100C55 75.1472 75.1472 55 100 55Z" fill="#0066CC"/>
</svg>
