<svg xmlns="http://www.w3.org/2000/svg" xml:space="preserve" id="Layer_1" x="0" y="0" style="enable-background:new 0 0 171.2 171.2" version="1.1" viewBox="0 0 171.2 171.2"><style>.st1{fill:#fff}.st2{fill:#fcc800}</style><path id="XMLID_12_" d="M171.2 85.6c0 47.3-38.3 85.6-85.6 85.6S0 132.9 0 85.6 38.3 0 85.6 0s85.6 38.3 85.6 85.6" style="stroke:#fff;stroke-width:0;fill:#2f67b2"/><path d="m50.7 135.4 2.6 8h8.5l-6.9 5 2.7 8.1-6.9-5-6.9 5 2.7-8.1-6.9-5h8.5zM26.1 39.6l2.6 8.1h8.5l-6.9 5 2.6 8.1-6.8-5-6.9 5 2.6-8.1-6.9-5h8.5zM50.6 14.6l2.6 8.1h8.5l-6.8 5 2.6 8.1-6.9-5-6.9 5 2.7-8.1-6.9-5H48zM85.6 5.2l2.6 8.1h8.5l-6.9 5 2.7 8.1-6.9-5-6.9 5 2.7-8.1-6.9-5H83zM120.2 14.7l2.6 8.1h8.5l-6.9 5 2.7 8-6.9-4.9-6.9 4.9 2.6-8-6.8-5h8.5zM145.7 40.2l2.6 8h8.5l-6.9 5 2.6 8.1-6.8-5-6.9 5 2.6-8.1-6.9-5h8.5zM155.1 75.1l2.6 8.1h8.5l-6.9 5 2.7 8.1-6.9-5-6.9 5 2.7-8.1-6.9-5h8.5zM145.6 110.2l2.7 8.1h8.5l-6.9 5 2.6 8.1-6.9-5-6.8 5 2.6-8.1-6.9-5h8.5zM120.2 135.5l2.6 8.1h8.5l-6.9 5 2.6 8.1-6.8-5-6.9 5 2.6-8.1-6.9-5h8.5zM85.7 144.8l2.6 8.1h8.5l-6.9 5 2.7 8.1-6.9-5-6.9 5 2.6-8.1-6.8-5h8.5zM25.7 110.1l2.7 8.1h8.5l-6.9 4.9 2.6 8.1-6.9-5-6.8 5 2.6-8.1-6.9-4.9h8.5zM16.2 74.5l2.6 8.2h8.6l-6.9 5 2.6 8.2-6.9-5.1-7 5.1 2.7-8.2-6.9-5h8.5z" class="st2"/><path id="XMLID_11_" d="M85.8 93.5c-7.6 0-13.9-2.6-18.9-7.8-4.9-5.2-7.4-11.6-7.4-19.2 0-7.7 2.5-14 7.4-19.1 4.9-5.1 11.2-7.6 18.8-7.6 7.6 0 13.9 2.6 18.7 7.8 4.8 5.2 7.2 11.6 7.2 19.2s-2.4 14-7.2 19c-4.8 5.1-10.9 7.7-18.6 7.7" class="st1"/><path id="XMLID_10_" d="M59.6 131c0-7.7 2.5-14 7.4-19.1 4.9-5.1 11.2-7.6 18.9-7.6 7.6 0 13.9 2.6 18.6 7.8 4.8 5.2 7.2 11.6 7.2 19.2" class="st1"/></svg>