<svg xmlns="http://www.w3.org/2000/svg" xml:space="preserve" width="43" height="43"><path fill="#26a33e" d="M4.135 11.77c.168 0 .305-.201.305-.449 0-.247-.137-.448-.305-.448-.168 0-.305.201-.305.448 0 .248.137.449.305.449zm1.55.054c.169 0 .305-.2.305-.448 0-.247-.136-.448-.305-.448-.168 0-.305.201-.305.448s.137.448.305.448zm.472 1.305c-.123-.087-.271-.012-.331.168-.172.522-.45.765-.875.765-.445 0-.76-.263-.863-.72-.043-.191-.183-.294-.313-.23-.13.063-.2.269-.156.459.172.762.67 1.217 1.332 1.217.618 0 1.063-.394 1.32-1.173.06-.18.008-.398-.114-.486zm2.734-.41c0-2.79-1.803-5.062-4.019-5.062-2.215 0-4.018 2.271-4.018 5.062 0 2.624 1.593 4.787 3.624 5.038.096.293.237.525.354.716.389.638 1.1 1.807.2 5.498l-.056.04c-1.137.941-2.546-.563-2.56-.578-.456-.495-1.1-.359-1.44.308-.34.667-.251 1.608.2 2.111.052.058.706.77 1.643 1.192-.047.306-.085.6-.117.86a44.13 44.13 0 0 0-.164 1.563 3.582 3.582 0 0 1-.891-.664c-.456-.495-1.101-.36-1.44.308-.34.666-.252 1.608.2 2.111.087.096 1.87 2.038 3.845 1.353.058.788.13 1.278.14 1.338.114.75.62 1.22 1.13 1.054.442-.145.743-.721.743-1.36 0-.1-.008-.2-.023-.3-.003-.021-.163-1.13-.163-2.75 0-1.452.129-3.314.617-5.167.482-1.831.67-3.303.67-4.507 0-1.612-.338-2.74-.756-3.6 1.348-.818 2.28-2.556 2.28-4.564zm-4.019 2.882c-1.397 0-2.534-1.293-2.534-2.882 0-1.589 1.137-2.881 2.534-2.881 1.398 0 2.535 1.292 2.535 2.881 0 1.59-1.137 2.882-2.535 2.882z" style="stroke-width:.0999358"/><g style="fill:#fff;fill-opacity:1"><path fill="#777676" d="M134.885 99.484c-.32-.046-.643-.017-.954-.017h-10.935c-.692 0-1.154.061-1.154.675 0 .858 3.85 10.985 3.85 26.695 0 11.845-4.082 22.093-4.082 22.706 0 1.166 1.925.982 2.926.982h4.22v.013h9.601V99.484ZM198.565 76.094v23.263l-32.366.147-.13.024c-3.699.678-6.998 1.89-9.805 3.601-6.915 4.402-10.928 10.973-11.951 19.547-.351 7.416 1.883 13.91 6.63 19.408 4.414 4.797 10.065 7.61 16.829 8.394l.09.01 21.4-.147.136-.026c6.535-1.258 11.845-4.171 15.785-8.659 3.415-4.207 5.472-9.113 6.152-14.626l.012-.092V76.094Zm0 50.094c-1.202 6.458-4.973 10.228-11.524 11.519h-18.44c-6.46-1.201-10.23-4.977-11.52-11.536-.003-.128-.006-.257-.006-.383 0-3.082.738-5.845 2.19-8.225 2.101-2.867 4.754-4.593 8.1-5.279.373 0 31.11-.145 31.2-.145v14.05zM284.347 122.908l-.012-.092c-.68-5.511-2.737-10.417-6.114-14.581-3.978-4.533-9.288-7.446-15.824-8.704l-.134-.026-21.555-.148-.1.013c-6.85.886-12.446 3.63-16.63 8.159-4.783 5.572-7.016 12.08-6.674 19.386 1.032 8.884 5.478 15.74 13.222 20.481l.022.014c2.532 1.49 5.966 2.523 10.206 3.067l.095.011h43.498v-12.781h-42.751l-2.562-.565c-3.688-1.5-6.214-3.671-7.623-6.558h52.936v-7.676zm-24.256-10.77c.805.11 1.901.305 3.176.793 2.986 1.144 4.71 3.012 5.125 3.529.422.526.752.97 1.005 1.34h-37.04a12.446 12.446 0 0 1 2.263-2.62c2.566-2.243 5.418-2.848 6.826-3.041 1.388-.081 13.134-.743 18.645 0z" style="fill:#fff;fill-opacity:1" transform="matrix(.1389 0 0 .21875 -6.673 -8.988)"/><path fill="#939393" d="M357.144 122.93c-.992-8.818-5.44-15.678-13.222-20.387l-.016-.01c-2.534-1.49-5.981-2.539-10.246-3.113l-.1-.013H290.01v51.082h12.832v-38.252h13.4v38.252h12.781v-38.217l4.745.11c.184.001 1.103.091 4.409 1.733 3.475 2.327 5.502 5.528 6.194 9.778v26.596h12.783v-27.475z" style="fill:#fff;fill-opacity:1" transform="matrix(.1389 0 0 .21875 -6.673 -8.988)"/><path fill="#777676" d="M143.06 167.925c-2.019-2.309-4.703-3.77-7.992-4.382l-.04-.008-10.98-.106-.034.005c-3.418.402-6.287 1.816-8.517 4.21-2.254 2.644-3.387 5.704-3.385 9.117 0 .225.007.457.017.688.504 4.35 2.537 7.696 6.03 9.922 1.453.88 3.114 1.481 4.978 1.815l.044.006 16.914.079c-.03.379-.08.73-.15 1.054-.739 2.78-2.477 4.462-5.452 5.221l-22.441.078v6.063h22.282c4.487-.507 7.938-2.745 10.257-6.61.77-1.302 1.275-3.023 1.556-5.17l.004-.029v-14.503c-.338-2.864-1.37-5.34-3.09-7.45zm-9.104 1.57s3.646 1.518 4.217 2.106c1.41 1.453 1.808 3.192 1.94 4.05v7.556l-16.418-.076c-1.776-.362-3.198-1.29-4.344-2.847-.768-1.244-1.165-2.697-1.165-4.373l.003-.245c.074-.585.397-2.576 2.112-4.234a7.182 7.182 0 0 1 4.037-1.937c4.432-.042 9.618 0 9.618 0zM199.701 163.323c-2.157.278-3.892.786-5.213 1.563-3.959 2.412-6.247 5.934-6.762 10.417l.497.058h-.501v14.045h6.1v-13.714c-.013-.21.218-1.09.713-2.372 1.402-2.373 3.257-3.626 5.717-3.906l21.93.003v-6.099h-22.448zM237.788 163.318l-.035.004c-2.158.279-3.896.786-5.215 1.564-3.96 2.414-6.246 5.933-6.76 10.417l.497.06h-.502v14.044h6.1v-13.715c-.013-.21.22-1.087.711-2.368 1.401-2.375 3.26-3.63 5.719-3.91l21.932.004v-6.1h-22.447zM351.521 163.32h6.1v26.087h-6.1zM183.795 177.242c.015-.276.034-.554.034-.826.004-3.23-1.035-6.115-3.087-8.58l-.383.32.362-.342c-2.468-2.631-5.437-4.145-8.835-4.493l-21.631-.004v6.096l21.766.08c2.472.645 4.09 1.908 5.005 3.872h-27.204l-.068.419a17.523 17.523 0 0 0-.247 2.855c0 1.294.172 2.485.518 3.568 1.936 5.342 5.831 8.467 11.444 9.195l.037.006h22.289v-12.166zm-22.444 5.99s-2.79-.837-4.162-2.498a6.713 6.713 0 0 1-.825-1.27h21.387v3.827c-8.282-.084-16.4-.059-16.4-.059zM310.661 176.561c0-.046.006-.094.006-.141 0-.05-.006-.099-.006-.149v-.133h-.005c-.057-3.117-1.084-5.91-3.076-8.302l-.383.321.361-.345c-2.466-2.628-5.435-4.144-8.834-4.493l-21.632-.002v6.096l21.767.081c2.472.645 4.089 1.907 5.004 3.872h-27.201l-.07.417c-.168 1.001-.25 1.954-.25 2.858 0 1.292.173 2.482.52 3.567 1.936 5.34 5.832 8.467 11.445 9.194l.036.005h21.534v-.026h.784v-12.82zm-6.044 2.902v3.828l-16.43-.059c-.91-.215-2.772-.804-4.163-2.5a6.86 6.86 0 0 1-.824-1.27c6.808-.07 14.609.072 21.417 0M348.701 176.817c.004-.133.017-.271.017-.404.004-3.229-1.035-6.114-3.085-8.577l-.385.32.364-.343c-2.468-2.63-5.438-4.145-8.837-4.493l-21.631-.002v6.096l21.768.08c2.47.646 4.089 1.907 5.003 3.872h-27.203l-.07.417a17.586 17.586 0 0 0-.244 2.857c-.002 1.293.17 2.483.517 3.568 1.932 5.34 5.832 8.466 11.445 9.195l.037.004h21.533v-.04h.771v-12.55zm-6.044 2.647v3.827l-16.419-.059c-.908-.214-2.77-.802-4.16-2.498a6.845 6.845 0 0 1-.824-1.27c6.547-.057 14.856.057 21.403 0" style="fill:#fff;fill-opacity:1" transform="matrix(.1389 0 0 .21875 -6.673 -8.988)"/></g></svg>