<svg xmlns="http://www.w3.org/2000/svg" xml:space="preserve" id="Livello_1" x="0" y="0" style="enable-background:new 0 0 374.9 57.4" version="1.1" viewBox="0 0 374.9 57.4"><style>.st0{fill:#632d4f}</style><path d="M35.1 28.7c0 3.7-3 6.8-6.8 6.8-3.7 0-6.8-3-6.8-6.8 0-3.7 3-6.8 6.8-6.8s6.8 3.1 6.8 6.8" class="st0"/><path d="M29.3 39.1v3.1c6.7-.4 12.1-5.8 12.5-12.5h-3.1c-.4 4.9-4.4 8.9-9.4 9.4"/><path d="M18 28.7c0-5.7 4.7-10.4 10.4-10.4 5.4 0 9.9 4.1 10.3 9.4h3.1c-.5-7-6.3-12.5-13.4-12.5-7.4 0-13.5 6-13.5 13.5 0 7.1 5.5 13 12.5 13.4V39c-5.3-.4-9.4-4.9-9.4-10.3"/><path d="M3.1 28.7c0-13.9 11.3-25.2 25.2-25.2 13.6 0 24.7 10.8 25.2 24.3h3.1C56.2 12.3 43.7 0 28.4 0 12.7 0 0 12.9 0 28.7c0 15.5 12.2 28.2 27.5 28.7v-3.5C13.9 53.5 3.1 42.3 3.1 28.7"/><path d="M29.3 53.9v3.5c15-.5 27-12.7 27.4-27.8h-3.1c-.5 13.2-11.1 23.9-24.3 24.3"/><path d="M29.3 49v3.1c12.2-.5 22-10.3 22.4-22.5h-3.1c-.4 10.5-8.8 18.9-19.3 19.4"/><path d="M8.1 28.7c0-11.2 9.1-20.3 20.3-20.3 10.9 0 19.8 8.6 20.3 19.3h3.1C51.2 15.3 41 5.3 28.4 5.3 15.5 5.3 5 15.8 5 28.7 5 41.3 15 51.6 27.5 52v-3c-10.8-.5-19.4-9.4-19.4-20.3"/><path d="M13 28.7c0-8.5 6.9-15.3 15.3-15.3 8.1 0 14.8 6.4 15.3 14.4h3.1c-.5-9.7-8.5-17.5-18.4-17.5-10.1 0-18.3 8.2-18.3 18.4 0 9.9 7.8 17.9 17.5 18.4V44C19.4 43.5 13 36.9 13 28.7"/><path d="M29.3 44v3.1c9.5-.5 17-8 17.5-17.5h-3.1c-.5 7.7-6.7 14-14.4 14.4"/><path d="M333.1 6.2h22.1c14.6 0 19.7 10.8 19.7 21.8 0 13.4-7.1 21.9-22.4 21.9H333V6.2zm13.5 32.5h5.3c8.4 0 9.6-6.8 9.6-10.9 0-2.8-.9-10.4-10.6-10.4h-4.3v21.3z" class="st0"/><path d="M62.8 6.4h11.7l15.1 26.8h.1V6.4h10.7v43.5H88.7L73.6 22.8h-.1v27.1H62.8zM105.2 28c.2-4.1 2.1-6.8 4.9-8.5 2.8-1.6 6.5-2.2 10-2.2 7.5 0 14.7 1.6 14.7 10.6v13.8c0 2.7 0 5.6 1.2 8.1h-10.4c-.4-1-.5-1.9-.6-3-2.7 2.8-6.6 3.9-10.4 3.9-6 0-10.8-3-10.8-9.6 0-10.3 11.2-9.5 18.4-11 1.8-.4 2.7-1 2.7-2.9 0-2.4-2.9-3.3-5-3.3-2.9 0-4.7 1.3-5.2 4h-9.5zm13.4 16.4c4.9 0 6.6-2.8 6.3-9.3-1.5.9-4.1 1.1-6.4 1.7-2.3.5-4.3 1.5-4.3 4 .1 2.6 2.1 3.6 4.4 3.6M139.7 18.3h10v4.3h.1c1.9-3.2 5.2-5.2 9.1-5.2 4 0 7.5 1.3 9.2 5.1 2.5-3.3 5.6-5.1 9.9-5.1 10 0 11.1 7.6 11.1 13.6v18.9h-10.3V31.3c0-3.4-1.6-5.4-4.3-5.4-4.4 0-4.9 3.4-4.9 8.5v15.5h-10.4v-18c0-3.7-1.1-6-3.9-6-3.7 0-5.3 2.1-5.3 8.6v15.4h-10.4V18.3zM204.8 14.3h-10.4V6.4h10.4v7.9zm-10.3 4h10.4v31.6h-10.4V18.3zM210.5 18.3h10v5.5h.1c1.5-4 5.1-6.2 9.5-6.2.8 0 1.6.1 2.4.2v9.4c-1.3-.4-2.6-.6-4-.6-5.1 0-7.8 3.5-7.8 7.5v15.6h-10.4V18.3zM244.8 14.3h-10.4V6.4h10.4v7.9zm-10.4 4h10.4v31.6h-10.4V18.3zM249.7 28c.2-4.1 2.1-6.8 4.9-8.5 2.8-1.6 6.5-2.2 10-2.2 7.5 0 14.7 1.6 14.7 10.6v13.8c0 2.7 0 5.6 1.2 8.1h-10.4c-.4-1-.5-1.9-.6-3-2.7 2.8-6.6 3.9-10.4 3.9-6 0-10.8-3-10.8-9.6 0-10.3 11.2-9.5 18.4-11 1.8-.4 2.7-1 2.7-2.9 0-2.4-2.9-3.3-5-3.3-2.9 0-4.7 1.3-5.2 4h-9.5zm13.4 16.4c4.9 0 6.6-2.8 6.3-9.3-1.5.9-4.1 1.1-6.4 1.7-2.3.5-4.3 1.5-4.3 4 0 2.6 2 3.6 4.4 3.6M284.6 6.4H295v43.5h-10.4z"/><path d="M314 30.1c-3.5 0-6.4-1.2-8.7-3.6-2.3-2.4-3.4-5.3-3.4-8.8 0-3.5 1.1-6.5 3.4-8.8 2.3-2.3 5.2-3.5 8.7-3.5 3.5 0 6.4 1.2 8.6 3.6 2.2 2.4 3.3 5.3 3.3 8.8 0 3.5-1.1 6.4-3.3 8.8-2.2 2.3-5.1 3.5-8.6 3.5M300.1 49.9c0-4.1 1.3-7.5 3.9-10.2 2.6-2.7 6-4 10-4s7.4 1.4 9.9 4.1c2.6 2.7 3.8 6.1 3.8 10.1" class="st0"/></svg>