<svg xmlns="http://www.w3.org/2000/svg" xml:space="preserve" id="Livello_1" x="0" y="0" style="enable-background:new 0 0 551.1 150.6" version="1.1" viewBox="0 0 551.1 150.6"><style>.st0{fill:#007cba}</style><path d="M405.2 16c0-8.6 7-16 16.3-16s16.3 7.4 16.3 16-7 16-16.3 16c-9.3-.1-16.3-7.5-16.3-16zm3.5 131.3V50.4c0-2.1.4-2.9 13-2.9h1c11.5 0 12.7.8 12.7 2.9v96.9c0 2.1-1.2 2.9-12.7 2.9h-1c-12.6 0-13-.7-13-2.9zM450.3 98.9c0-34.4 17.3-54.9 42.8-54.9 9.1 0 16.7 3.1 23.2 8.8v-49c0-2.1.4-2.9 13-2.9h1c11.5 0 12.7.8 12.7 2.9v118.9c0 4.3 1.8 5.4 5.6 5.4 2.3 0 2.5 1 2.5 8v2.1c0 6.8-.4 8.4-1.8 9-3.5 1.4-8.8 2.3-14 2.3-8.6 0-14.4-3.9-16.9-9.7-6.6 7-16.3 10.9-27.1 10.9-25.5-.1-41-19.9-41-51.8zm63.2 23.9c2.1-2.3 2.7-5.5 2.7-10.5V75.9c-4.9-5.8-10.7-9-17.5-9-14.2 0-21 11.3-21 31.9 0 11.5 2.7 18.9 6.6 23.4 3.5 4.1 9.1 5.6 14.6 5.6 5.5.1 11.7-1.9 14.6-5z" class="st0"/><path d="M106 0c3 0 3.6.4 3.6 11v9.8c0 10.2-.8 11.4-3.6 11.4H71.9v114.1c0 2.6-3.2 3.2-14.6 3.2h-6c-11.6 0-13.6-.6-13.6-3.2V32.2H3.6C.8 32.1 0 31.3 0 20.7V11C0 0 .6 0 3.6 0H106zm61.1 3.2c0-2.2-3.2-3.2-14.2-3.2h-6.4c-11.6 0-13.6 1-13.6 3.2v143c0 2.6 2 3.2 13.6 3.2h6.4c11 0 14.2-.6 14.2-3.2V3.2zM333.5 0h-10c-12.8 0-13.6 1.4-14.6 3.6L289 51c-6.6 15.7-13.4 32.7-16 41.4-2.4-8.8-6.8-20.5-16-42.2L237.1 3.6c-1.2-2.8-6.2-3.6-17-3.6h-11.2c-11 0-13.2 1-13.2 3.2v143c0 2.6 2.2 3.2 13.6 3.2h6.2c11.2 0 14.4-.6 14.4-3.2V61.4h.8s1 4 2.6 7.6l22.8 53.2c1 2.4 2.2 3.4 12.8 3.4h6.8c10.8 0 11.6-.8 12.6-3.4L309.1 71c2-4.8 3.4-9.6 3.4-9.6h.8v84.8c0 2.6 2.2 3.2 14 3.2h6c11 0 14.2-.6 14.2-3.2V3.2c.2-2.2-3-3.2-14-3.2z" style="fill:#004a97"/></svg>