<svg xmlns="http://www.w3.org/2000/svg" xml:space="preserve" id="Layer_2" x="0" y="0" style="enable-background:new 4 223.2 601.7 146" version="1.1" viewBox="4 223.2 601.7 146"><style>.st1{fill:#895247}.st2{fill:#fff}.st5{fill:#841723}.st6{fill-rule:evenodd;clip-rule:evenodd;fill:#fff}</style><g id="XMLID_1_"><path d="M605.7 270.4v98.8h-96.8s-16.1-1-29.2-11c-21.7-16.5-21-32.8-21-32.8V223.2h115.4s13.2 6.5 22.8 20.8c8.2 12.3 8.8 26.4 8.8 26.4z" style="fill:#06c"/></g><path d="M458.7 256.3v37.2s15.9-2.4 15.9-19.5c0-15.2-15.9-17.7-15.9-17.7z" class="st2"/><path id="XMLID_85_" d="M502.7 244.5c-3.9-.5-6.7-.7-8.2-.7-1.5 0-2.6.1-3 .4-.4.3-.7.7-.7 1.4 0 .6.3 1.1.9 1.3.6.2 2.2.6 4.8 1.1 2.5.4 4.4 1.2 5.4 2.2 1.1 1.1 1.6 2.7 1.6 5.1 0 5.1-3.2 7.7-9.5 7.7-2.1 0-4.6-.3-7.6-.9l-1.5-.3.2-5.3c3.9.5 6.7.7 8.2.7 1.5 0 2.6-.1 3.2-.4.6-.3.8-.7.8-1.4 0-.6-.3-1.1-.9-1.3-.6-.3-2.1-.6-4.6-1.1-2.5-.4-4.3-1.1-5.5-2.1-1.2-1-1.8-2.7-1.8-5.3 0-2.5.9-4.4 2.5-5.7 1.7-1.3 3.9-1.9 6.6-1.9 1.9 0 4.4.3 7.7.9l1.5.3-.1 5.3z" class="st2"/><path id="XMLID_82_" d="M518.6 243.7c-1.2 0-2.4.2-3.6.7l-.6.2V257c1.4.2 2.6.3 3.5.3 1.9 0 3.1-.6 3.8-1.6.7-1.1 1.1-2.9 1.1-5.5-.1-4.3-1.4-6.5-4.2-6.5m-10.5 28.6v-33.7h6.3v1.3c2-1.2 3.8-1.9 5.4-1.9 3.2 0 5.6 1 7.1 2.8 1.5 1.9 2.3 5.2 2.3 9.8 0 4.6-.9 7.8-2.5 9.6-1.7 1.8-4.5 2.7-8.3 2.7-1.1 0-2.2-.1-3.4-.3l-.6-.1v9.8h-6.3z" class="st2"/><path id="XMLID_79_" d="m565.8 256.6.7-.1V244c-1.7-.3-3.3-.5-4.6-.5-2.5 0-3.8 2.3-3.8 6.9 0 2.5.3 4.2.9 5.3.6 1.1 1.5 1.5 2.8 1.5 1.2 0 2.5-.2 4-.6m7-27.5v33.3h-6.3v-1c-2.2 1.1-4.1 1.5-5.8 1.5-3.5 0-5.9-1-7.2-3-1.4-2-2-5.1-2-9.5 0-4.3.8-7.5 2.5-9.5 1.6-2 4.1-3 7.4-3 1 0 2.4.2 4.2.5l.9.2v-9.7h6.3z" class="st2"/><path id="XMLID_78_" d="M540.3 252.4c-2 0-3.6-.7-4.8-2-1.2-1.3-1.9-3-1.9-5s.6-3.6 1.9-4.9c1.2-1.3 2.8-1.9 4.8-1.9s3.6.7 4.8 2c1.2 1.4 1.9 3 1.9 5s-.6 3.6-1.9 4.9c-1.2 1.2-2.8 1.9-4.8 1.9" class="st2"/><path id="XMLID_77_" d="M533.6 262c0-2 .6-3.6 1.9-4.9 1.2-1.3 2.8-1.9 4.8-1.9s3.6.7 4.8 2c1.2 1.4 1.9 3 1.9 5" class="st2"/><path d="M489.9 354v-80.7H505V354h-15.1zM587.2 313c.3 20.4-12.1 41.1-40.4 41.1h-31.7v-80.7h31.7c27.7-.1 40 19.6 40.4 39.6zm-57 26.4h16.6c18.3 0 25.6-13.4 25.3-26.5-.3-12.6-7.7-25.1-25.3-25.1h-16.6v51.6z" class="st2"/><path d="M459.7 285.9c4.5-1.9 7.4-5.8 7.9-10.1v-2.3c-.2-1.7-.8-3.5-1.9-5.2-4-5.3-9.3-5.4-15.2-5.1-.2-7.4.2-15.3-1.1-22.6-1.5-8.8-9.4-14.1-17.7-9.1-5.9 3.9-6.3 9.9-6.4 16.3-.1 5.8.2 11.6.4 17.4-7.3.6-16.1.8-19.7 7.4v11.1c1.2 2 3.1 3.7 5.6 4.7 4.4 1.5 9.3.9 13.9.4.2 11 .4 22 .4 33 .1 9.8-3 26.4 11 28.3 9.3.4 13.3-8 13.7-16 .1-2.7.1-5.3 0-8-.5-12.9-.2-25.9-.1-38.8 3.2-.1 6.2-.2 9.2-1.4m-53.8 48.6v-27.4c.4 4.3.7 8.7 1 13 .3 4.3 1 8.7-.4 12.9-.1.5-.4 1-.6 1.5m0-67.9v-10.3c.8 3.3.8 6.9 0 10.3m0 5.9c-.6 1.1-1.1 2.4-1.4 3.9-.3 2.7.2 5.2 1.4 7.2v-11.1zm0-16.2v10.3c-.7 3.1-2 6-3.9 8.5.6 1.4.9 2.8 1.1 4.3 1.2 9.2 2.1 18.5 2.8 27.8v27.4c-5.5 11-21.1 6.6-22.6-5.3-.6-4.5-.8-9.1-1.1-13.7l-2.3-27.6c-1-3.3-1.3-7.2-.4-10.5-1.4-1.8-2.9-3.6-4.2-5.5-.7-1-1.2-2.1-1.7-3.2v-16c2.5-6.1 8-10.6 16-10 2.9.2 5.9 1.1 8.4 2.5 4.2 2.5 6.8 6.5 7.9 11m-32.3 86.2c.7-1.2 1.1-2.6 1.4-4.1.4-3.1-.2-5.7-1.4-7.9v12zm0-89.8v16c-2.1-5.1-2-11.1 0-16m0 77.8c-2.1-3.9-6.1-6.6-10.2-9l-3.4-.5c-6 2.1-12.3 4.2-13.8 11.2-.2-7-.3-14-.4-21-.1-10.4 3.4-47.9-18-40-2.7 1.2-4.6 3-6.1 5.6-3.3-1-6.7-1.8-10.2-2.2-.6-.1-1.2-.1-1.9-.2v24.8c1.8 0 3.7.2 5.4.4 6.7 6 7.4 15.5 2.4 22.7-.9 1.3-1.9 2.4-3.3 3.3-1.1.7-2.7.9-4.5.7V351c5.6.3 10.9-.5 16.3-4 6.8 8.5 18.6 3.6 19.9-6.5 0-.1.1-.7.1-.6 3.8 12.4 21.8 13 27.5 2.5v-11.9zm-63.8-56.1v24.8c-2.6 0-5.2.6-7.1 2.5-4.6 4.6-4 12.4-3.7 18.4.2 3.3 6.1 6 10.8 6.3V351c-3.3-.2-6.6-.7-10.2-1.3-9.8-1.6-17.6-9.6-22.1-18.1-4.1-7.7-2.9-20.9-1.1-29.2 1.3-6.1 4.6-15 9.1-19.4 5.7-5.4 16.3-8.9 24.3-8.6m-71.1 77.1c3.9-.1 7.9-.8 11.8-1.7 8.7-2.1 14.4-8.2 19.2-15.3 7.1-10.5 4.4-28.3 0-39.5-4.6-11.7-10.7-16.1-22.5-19.3-2.8-.7-5.6-.9-8.4-.8v24.8c2.7 0 5.3.6 7.2 2.5 4.9 4.9 4.1 13.3 3.6 19.6-3.5 2.6-7.3 4.9-10.8 5.1v24.6zm0-76.6v24.8c-1.9 0-3.8.2-5.5.4-6.5 5.5-7.4 15-2.8 22 2.5 3.7 5.4 5 8.4 4.8v24.5c-5.7.2-11.3-.8-16.5-4.1-5.7 7.1-16.1 5.1-19.3-3.3-1.8-5.9 1.2-28-1.4-29.9h-.5c-4.7 20.2-22.6 27.2-41.8 24.1-9.8-1.8-19.1-8.9-23.1-18-2.5-6-2-12.5-1.2-18.8.5-3.2-1.6-.1-2.4.6-7.3 6.7-15.5 1.8-21.6-3.6-3.2-2.9-8-.2-10 3 .2 12.6 1 25.8.1 38.3l-.1 1.3c-1.6 14-20.2 13.6-22.7 1.5-1.4-8.4-1-17.7-1.3-26.2 0-1.5.1-2.1-.6-3.4-1.9 1.9-.6 15.8-.4 19.5.1 2.7.2 5.5-.1 8.2-1.1 10.1-12.8 15.9-20 7-4.6 3-10.4 4.3-16.5 4.2v-24.6c3 .2 5.9-1.1 8.4-4.9 4.3-6.7 3.6-16.5-2.9-21.7-1.8-.2-3.6-.5-5.5-.4v-24.6c2.6.1 5.4.5 8.5 1.2 1.2.3 2.4.6 3.7 1 2.9-5.2 8.4-7.5 14.1-6 6.7 2.5 8.4 8.3 9.1 14.7l1.3-.5c2.7-6.7 9-11.7 16.5-8.6 5.8-3.4 13.2-3.9 19.7-3.3 8.8 1 21.7 7.2 24 16.4.4 1.4.8-.3.9-.8 2-6.6 5.2-12.8 8.2-19 5.6-3.8 11.4-6.3 17.5-1.5 3 2.7 4.4 6.3 4.3 10.3-.4 7.5-19.7 36.3-.5 36.2 8.3-.1 9.7-5.7 9.9-12.9.2-10.4-12.9-21.2-1-30 6.5-4.2 14.4-3.2 18.8 3.3 3.5 5.5 5.7 12.5 7 18.8 1.8.9 1.7-9.6 1.7-11.2.5-16.3-.4-32.9 1.1-49.1 1.8-16.7 23.9-13.6 23.6 2.2-.8 13.5-.9 27-1.1 40.5 4.1-1.2 8.1-2.1 12-2.4m-199.3.5V300c-2.7 0-5.2.6-7.2 2.5-4.8 4.8-4.1 13.3-3.6 19.5 3.5 2.6 7.2 4.8 10.7 5.1v24.6c-11.1-.1-22.8-5-28.4-13.4-.6-.9-1.2-1.8-1.8-2.6-3-4.5-4.7-10.7-5-17.3v-5.2c.7-14.3 7-29.4 18.1-34.1 6.4-2.6 11.5-3.8 17.2-3.7" style="fill-rule:evenodd;clip-rule:evenodd;fill:#f26e3d"/><path d="M459.7 285.9c7-3 10.3-10.9 6-17.7-4-5.3-9.3-5.4-15.2-5.1-.2-7.4.2-15.3-1.1-22.6-1.5-8.8-9.4-14.1-17.7-9.1-5.9 3.9-6.3 9.9-6.4 16.3-.1 5.8.2 11.6.4 17.4-8.5.8-19.1.8-21.1 11.3-.6 5.4 2 9.8 7 11.9 4.4 1.5 9.3.9 13.9.4.2 11 .4 22 .4 33 .1 9.8-3 26.4 11 28.3 9.3.4 13.3-8 13.7-16 .1-2.7.1-5.3 0-8-.5-12.9-.2-25.9-.1-38.8 3.2 0 6.2-.1 9.2-1.3m-77.5 29.7c.4 4.5.6 9.2 1.1 13.7 1.6 12.4 18.4 16.6 23.3 3.7 1.3-4.2.7-8.6.4-12.9-1.1-13.6-2.1-27.3-3.8-40.8-.2-1.5-.6-2.9-1.1-4.3 6.9-9 6.2-23.6-3.9-29.8-2.6-1.4-5.5-2.3-8.4-2.5-15.9-1.2-21.8 17.7-14.3 29.3 1.3 1.9 2.7 3.7 4.2 5.5-.9 3.3-.6 7.2.4 10.5l2.1 27.6zm-96.7-32.7c-4.5 4.4-7.7 13.3-9.1 19.4-1.8 8.3-3 21.6 1.1 29.2 4.5 8.5 12.3 16.5 22.1 18.1 9.6 1.5 17.8 2.9 26.6-2.7 6.8 8.5 18.6 3.6 19.9-6.5 0-.1.1-.7.1-.6 4.2 13.9 26.2 12.9 28.9-1.5 1-8.4-5.1-13.1-11.6-16.9l-3.5-.4c-6 2.1-12.3 4.2-13.8 11.2-.2-7-.3-14-.4-21-.1-10.4 3.4-47.9-18-40-2.7 1.2-4.6 3-6.1 5.6-3.3-1-6.7-1.8-10.2-2.2-8-1.1-19.9 2.6-26 8.3m32.1 39.5c-.9 1.3-1.9 2.4-3.3 3.3-3.9 2.4-15-1.1-15.3-5.6-.4-6-1-13.8 3.7-18.4 3.2-3.2 8.3-2.6 12.5-2 6.7 6 7.4 15.5 2.4 22.7m-241.2-9.6c-1.9 1.9-.6 15.8-.4 19.5.1 2.7.2 5.5-.1 8.2-1.1 10.1-12.8 15.9-20 7-13 8.4-36.2 3.8-44.8-9.1-.6-.9-1.2-1.8-1.8-2.6-10.1-15-4.7-49 13.2-56.6 9-3.7 15.8-4.8 25.5-2.5 1.2.3 2.4.6 3.7 1 2.9-5.2 8.4-7.5 14.1-6 6.7 2.4 8.4 8.3 9.1 14.7l1.3-.5c2.7-6.7 9-11.7 16.5-8.6 5.8-3.4 13.2-3.9 19.7-3.3 8.8 1 21.7 7.2 24 16.4.4 1.4.8-.3.9-.8 2-6.6 5.2-12.8 8.2-19 5.6-3.8 11.4-6.3 17.5-1.5 3 2.7 4.4 6.3 4.3 10.3-.4 7.5-19.7 36.3-.5 36.2 8.3-.1 9.7-5.7 9.9-12.9.2-10.4-12.9-21.2-1-30 6.5-4.2 14.4-3.2 18.8 3.3 3.5 5.5 5.7 12.5 7 18.8 1.8.9 1.7-9.6 1.7-11.2.5-16.3-.4-32.9 1.1-49.1 1.8-16.7 23.9-13.6 23.6 2.2-.8 13.5-.9 27-1.1 40.5 6.6-1.9 13.3-3.3 20.1-1.5 11.8 3.2 17.9 7.6 22.5 19.3 4.4 11.2 7.1 28.9 0 39.5-4.8 7.1-10.5 13.2-19.2 15.3-9.7 2.1-19.6 3.2-28.3-2.4-5.7 7.1-16.1 5.1-19.3-3.3-1.8-5.9 1.2-28-1.4-29.9h-.5c-4.7 20.2-22.6 27.2-41.8 24.1-9.8-1.8-19.1-8.9-23.1-18-2.5-6-2-12.5-1.2-18.8.5-3.2-1.6-.1-2.4.6-7.3 6.7-15.5 1.8-21.6-3.6-3.2-2.9-8-.2-10 3 .2 12.6 1 25.8.1 38.3l-.1 1.3c-1.6 14-20.2 13.6-22.7 1.5-1.4-8.4-1-17.7-1.3-26.2.5-1.7.6-2.3-.2-3.6m154 9.4c5.5 8.2 12.6 4.4 19.2-.4.5-6.3 1.3-14.7-3.6-19.6-3.3-3.2-8.4-2.6-12.7-2-6.6 5.5-7.5 15-2.9 22m-182.6 0c-5.4 8.3-12.6 4.6-19.2-.2-.6-6.2-1.2-14.7 3.6-19.5 3.3-3.2 8.4-2.6 12.7-2 6.6 5.2 7.3 14.9 2.9 21.7" style="fill-rule:evenodd;clip-rule:evenodd;fill:#f06e3e"/><path d="M64.3 352c-2.2 0-5.5-.8-8.5-4.3-4.3 2.7-9.9 4.2-16 4.2-11.9 0-23.6-5.4-28.9-13.5-.4-.7-.9-1.3-1.4-2l-.4-.6c-5.6-8.3-6.7-22.6-2.8-35.7 3.1-10.6 8.8-18 16-21.1 6.3-2.6 11.1-3.7 16-3.7 3 0 6.1.4 9.5 1.2 1.3.3 2.5.6 3.5.9 2.3-4.1 6.2-6.4 10.8-6.4 1.2 0 2.3.2 3.5.5 6.9 2.5 8.5 8.8 9.2 14.6l1-.4c2.3-5.8 7.1-9.6 12.2-9.6 1.5 0 3 .3 4.4.9 4-2.3 9-3.5 14.9-3.5 1.6 0 3.2.1 4.8.3 8.7 1 21.9 7.2 24.1 16.5.1.3.1.4.2.4.1-.1.2-.4.4-1v-.2c1.8-5.9 4.6-11.5 7.2-17 .3-.7.7-1.4 1-2 0 0 0-.1.1-.1 2.8-2 6.6-4.2 10.6-4.2 2.5 0 4.9.9 7.2 2.7 3 2.7 4.5 6.3 4.4 10.5-.1 2.1-1.6 5.7-3.4 9.9-3.4 8.2-7.7 18.3-4.4 23.2 1.3 1.9 3.7 2.9 7.1 2.9h.1c7.8-.1 9.5-5 9.8-12.7.1-3.6-1.5-7.4-3-11-2.8-6.6-5.7-13.4 2.1-19.1 2.6-1.7 5.4-2.6 8.2-2.6 4.4 0 8.2 2.1 10.8 5.9 3.9 6 6 13.5 7 18.8.5 0 1.2-1.8 1.3-10.2v-.9c.2-5.8.2-11.8.2-17.5 0-10.4 0-21.1 1-31.6.9-8.4 6.7-11.3 11.4-11.3 3.3 0 6.6 1.4 9 3.8 2.5 2.5 3.7 5.9 3.7 9.7-.8 12.3-.9 24.9-1 37v3.3c4-1.1 8.7-2.3 13.4-2.3 2.3 0 4.5.3 6.6.8 12.6 3.4 18.3 8.3 22.7 19.4 4.8 12 6.8 29.5 0 39.6-4 6-9.9 13.1-19.3 15.4-3.7.8-8.5 1.7-13.3 1.7-5.8 0-10.7-1.3-15-4.1-2.3 2.8-5.4 4.3-8.7 4.3-4.8 0-9-3.1-10.7-7.8-.9-2.8-.7-9.2-.5-15.3.2-6.6.4-13.4-.8-14.5h-.3C197.6 330 185.5 339 168 339c-2.8 0-5.7-.2-8.7-.7-10-1.8-19.3-9.1-23.2-18.2-2.4-6-2-12.4-1.3-18.9.1-.9 0-1.1 0-1.2-.3 0-1.1.9-1.5 1.4-.2.2-.4.4-.5.6-2.4 2.2-5 3.3-7.9 3.3-4.2 0-8.7-2.3-13.9-6.9-.9-.8-1.9-1.2-3.1-1.2-2.7 0-5.3 2.1-6.6 4.1.1 3 .1 6.2.2 9.2.3 9.6.5 19.6-.1 29l-.1 1.3c-.9 7.4-6.4 10.7-11.5 10.7-4.8 0-10.2-2.9-11.5-9.2-1-5.9-1.1-12.3-1.2-18.5 0-2.6-.1-5.2-.2-7.7v-.5c0-1.1 0-1.7-.5-2.6-1.3 1.9-.7 11.2-.4 16.2.1 1.2.1 2.3.2 3 .1 2.6.2 5.4-.1 8.2-.8 6.6-5.9 11.6-11.8 11.6zm-8.4-4.7c.1 0 .1 0 .1.1 2.3 2.8 5.2 4.3 8.3 4.3 5.7 0 10.7-4.9 11.4-11.2.3-2.8.2-5.5.1-8.2 0-.7-.1-1.7-.2-3-.4-5.6-1-15.1.7-16.7 0 0 .1-.1.1 0 .1 0 .1 0 .1.1.7 1.2.7 1.8.7 3v.4c.1 2.5.1 5.2.2 7.7.1 6.2.2 12.5 1.2 18.4 1.3 6.2 6.5 8.9 11.2 8.9 5 0 10.3-3.2 11.2-10.4l.1-1.3c.6-9.5.4-19.4.1-29-.1-3.1-.2-6.2-.2-9.3v-.1c1.3-2.1 4.1-4.3 7-4.3 1.3 0 2.4.4 3.3 1.3 5.2 4.6 9.6 6.8 13.7 6.8 2.8 0 5.3-1.1 7.6-3.2.1-.1.3-.3.5-.6.7-.9 1.3-1.5 1.8-1.5.1 0 .2 0 .3.1.2.2.2.7.1 1.5-.7 6.5-1.2 12.8 1.2 18.7 3.8 8.9 13.1 16.1 22.9 17.9 2.9.5 5.8.7 8.6.7 17.3 0 29.4-9 33-24.7 0-.1.1-.1.2-.1h.6c1.4 1 1.2 7.4 1 14.8-.2 6.1-.4 12.4.4 15.2 1.7 4.6 5.8 7.5 10.4 7.5 3.3 0 6.3-1.5 8.6-4.3.1-.1.2-.1.2 0 4.3 2.8 9.2 4.1 15 4.1 4.8 0 9.5-.9 13.2-1.7 9.3-2.2 15.1-9.3 19-15.2 6.7-10 4.7-27.4-.1-39.3-4.3-10.9-10-15.8-22.4-19.2-2.1-.5-4.2-.8-6.5-.8-4.7 0-9.5 1.2-13.5 2.3h-.2l-.1-.1v-3.5c.1-12.1.3-24.7 1-37 .1-3.8-1.2-7-3.6-9.5-2.3-2.3-5.5-3.6-8.7-3.6-4.5 0-10.2 2.9-11 11-1 10.4-1 21.2-.9 31.5 0 5.8 0 11.7-.2 17.5v.8c-.1 7.4-.6 10.6-1.7 10.6-.1 0-.2 0-.3-.1-.1 0-.1-.1-.1-.1-1.1-5.2-3.1-12.7-7-18.8-2.5-3.7-6.3-5.8-10.5-5.8-2.7 0-5.5.9-8 2.5-7.6 5.6-4.9 12-2 18.7 1.5 3.6 3.1 7.4 3.1 11.1-.2 7.8-2 13-10.1 13.1h-.1c-3.6 0-6.1-1-7.4-3-3.4-5 1-15.3 4.4-23.5 1.8-4.2 3.3-7.8 3.4-9.8.1-4.1-1.4-7.6-4.3-10.2-2.2-1.7-4.5-2.6-6.9-2.6-3.8 0-7.5 2.2-10.3 4.1-.3.7-.7 1.3-1 2-2.7 5.4-5.5 11.1-7.2 16.9v.2c-.2.7-.4 1.3-.7 1.3-.3 0-.4-.4-.5-.7-2.2-9.1-15.3-15.3-23.8-16.3-1.6-.2-3.2-.3-4.8-.3-5.9 0-10.9 1.2-14.8 3.5h-.2c-1.5-.6-2.9-.9-4.4-.9-5 0-9.6 3.7-11.9 9.4l-.1.1-1.3.5h-.2l-.1-.1c-.6-6.1-2.2-12-9-14.5-1.1-.3-2.3-.4-3.4-.4-4.4 0-8.3 2.3-10.5 6.3 0 .1-.1.1-.2.1-1.1-.3-2.3-.6-3.6-1-3.4-.8-6.5-1.2-9.5-1.2-4.9 0-9.7 1.1-15.9 3.7-7.1 3-12.7 10.4-15.8 20.9-3.9 13-2.8 27.3 2.7 35.4l.4.6c.5.7.9 1.3 1.4 2 5.3 8 16.8 13.3 28.6 13.3 6.2.4 11.7-1.1 16.1-3.8-.1 0-.1 0 0 0zm278.7 4.2c-3.2 0-6.2-1.5-8.5-4.3-4.3 2.7-8.8 4-14.2 4-3.9 0-8-.6-12.3-1.3-12.4-2-19.7-13.4-22.3-18.2-4-7.4-3.2-20-1.1-29.3 1.5-6.7 4.9-15.3 9.1-19.5 5.3-5 15.1-8.6 23.3-8.6 1.1 0 2.1.1 3 .2 3.1.4 6.4 1.1 10 2.2 1.4-2.5 3.4-4.3 6.1-5.5 5.2-1.9 9.3-1.3 12.3 1.7 6.6 6.7 6.2 23.7 6 33.8 0 1.8-.1 3.4-.1 4.6v1.7c.1 5.9.2 12.1.3 18.1 1.9-6.1 7.8-8.2 13.4-10.1h.2l3.4.5h.1c6.7 3.9 12.7 8.6 11.7 17.1-1.5 8-8.5 11.6-14.9 11.6-6.6 0-12.1-3.6-14.1-9.3-.6 6-5.6 10.6-11.4 10.6zm-8.4-4.7c.1 0 .1 0 .1.1 2.2 2.8 5.1 4.3 8.3 4.3 5.6 0 10.5-4.6 11.3-10.7v-.1c.1-.6.1-.6.2-.6s.2.1.2.2c1.8 5.9 7.3 9.7 14 9.7 6.2 0 13.1-3.5 14.5-11.3 1-8.3-4.9-12.9-11.5-16.7l-3.3-.4h-.1c-5.9 2-12.1 4.2-13.5 11.1 0 .1-.1.1-.2.1s-.2-.1-.2-.2c-.2-6.5-.3-13-.4-19.4v-1.7c0-1.2 0-2.8.1-4.6.2-10.1.6-27-5.9-33.6-1.8-1.8-4-2.7-6.5-2.7-1.6 0-3.4.4-5.4 1.1-2.7 1.2-4.6 3-6 5.5 0 .1-.1.1-.2.1-3.7-1.1-7-1.8-10.1-2.2-.9-.1-1.9-.2-3-.2-8.1 0-17.8 3.6-23.1 8.5-4.2 4.1-7.6 12.7-9 19.3-2 9.3-2.8 21.8 1.1 29.1 2.6 4.8 9.8 16 22 18 4.3.7 8.4 1.3 12.3 1.3 5.4 0 9.9-1.2 14.3-4-.1 0-.1 0 0 0zm111.3 3.4h-.7c-12.1-1.6-11.7-13.9-11.3-23.8.1-1.7.1-3.3.1-4.7 0-8.1-.2-16.4-.3-24.3 0-2.8-.1-5.6-.1-8.4l-.8.1c-2.1.2-4.2.4-6.4.4-2.5 0-4.7-.3-6.6-1-5.1-2.1-7.8-6.7-7.1-12.1 2-9.9 11.3-10.7 19.5-11.3.5 0 1.1-.1 1.6-.1 0-.8-.1-1.6-.1-2.4-.2-4.9-.3-9.9-.3-14.8.1-6.7.7-12.6 6.5-16.4 2.2-1.3 4.4-1.9 6.5-1.9 5.6 0 10.4 4.6 11.5 11.2.9 5.4 1 11.2 1 16.7 0 1.9 0 3.9.1 5.8 1.2-.1 2.1-.1 2.9-.1 4.3 0 8.8.6 12.3 5.3 2 3.1 2.5 6.6 1.4 9.9-1.1 3.5-3.9 6.5-7.5 8.1-2.9 1.2-5.7 1.3-9 1.3 0 2 0 4-.1 6-.1 10.7-.3 21.8.1 32.6.1 2.4.2 5.2 0 8-.3 7.2-4 15.9-13.2 15.9zm-12.1-61.7h.1l.1.1c0 2.9.1 5.7.1 8.6.1 8 .2 16.2.3 24.3 0 1.4-.1 3-.1 4.7-.4 9.7-.8 21.8 11 23.4h.6c8.9 0 12.5-8.5 12.9-15.8.1-2.8.1-5.5 0-8-.4-10.9-.3-21.9-.1-32.6 0-2.1.1-4.1.1-6.2 0-.1.1-.2.2-.2 3.4 0 6.2-.2 9.1-1.3 3.6-1.5 6.3-4.4 7.3-7.8 1-3.2.5-6.6-1.4-9.6-3.4-4.5-7.8-5.1-12-5.1-.9 0-1.8 0-3.1.1h-.1l-.1-.1c-.1-2-.1-4-.1-5.9 0-5.5-.1-11.2-1-16.6-1.1-6.4-5.7-10.9-11.1-10.9-2.1 0-4.2.6-6.4 1.9-5.6 3.7-6.2 9.5-6.3 16.2-.1 4.9.1 9.9.3 14.8 0 .9.1 1.7.1 2.6 0 .1-.1.2-.2.2-.6.1-1.2.1-1.8.2-8.1.7-17.3 1.4-19.2 11-.6 5.3 1.9 9.6 6.9 11.7 1.8.6 3.9.9 6.4.9 2.1 0 4.3-.2 6.3-.4l1.2-.2zM396.1 341c-5.5 0-12-4.1-12.9-11.7-.4-3-.6-6.2-.8-9.2l-.3-4.5-2.3-27.6c-1.1-3.5-1.3-7.4-.5-10.5l-.4-.5c-1.3-1.6-2.6-3.2-3.7-4.9-4-6.2-4.4-14.8-.8-21.3 3.1-5.8 8.6-8.7 15.3-8.2 3 .2 5.9 1.1 8.5 2.5 4.3 2.7 7.2 7 8.2 12.3 1.1 6.2-.4 12.8-4.2 17.7.5 1.4.9 2.8 1.1 4.2 1.7 13 2.7 26.4 3.7 39.4l.1 1.4c0 .6.1 1.2.1 1.7.3 3.7.7 7.6-.5 11.2-1.8 5.1-5.7 8-10.6 8zm-8-98.2c-5.9 0-10.7 2.9-13.5 8.1-3.5 6.4-3.2 14.8.8 20.9 1.1 1.7 2.4 3.3 3.7 4.9l.5.6v.2c-.8 3-.7 6.9.4 10.4l2.3 27.6.3 4.5c.2 3 .4 6.2.8 9.2.9 7.4 7.2 11.4 12.6 11.4 4.7 0 8.5-2.8 10.4-7.7 1.1-3.6.8-7.4.5-11.1 0-.6-.1-1.2-.1-1.7l-.1-1.4c-1-13-2-26.4-3.7-39.4-.2-1.5-.5-2.9-1.1-4.2v-.2c3.7-4.9 5.3-11.4 4.1-17.5-1-5.2-3.8-9.5-8-12.1-2.5-1.4-5.4-2.3-8.4-2.5h-1.5zm-348 84.5c-3.9 0-8-2.6-11.5-5.2l-.1-.1c-.5-5.9-1.3-14.7 3.6-19.6 1.8-1.7 4.2-2.5 7.6-2.5 1.7 0 3.5.2 5.3.4h.1c6.3 5.1 7.6 14.7 3 22-2.3 3.3-4.9 5-8 5zm-11.3-5.4c3.4 2.5 7.4 5 11.2 5 3 0 5.5-1.6 7.6-4.8 4.6-7.1 3.3-16.5-2.9-21.5-1.7-.2-3.4-.4-5.2-.4-3.3 0-5.6.8-7.3 2.4-4.6 4.8-3.9 13.5-3.4 19.3zm209.3 5.2c-3.1 0-5.7-1.6-7.8-4.9-4.8-7.3-3.5-16.8 2.9-22.2h.1c1.8-.2 3.5-.5 5.3-.5 3.3 0 5.8.8 7.6 2.5 4.9 4.9 4.2 13.3 3.7 19.5v.2c0 .1 0 .1-.1.1-3.7 2.7-7.8 5.3-11.7 5.3zm-4.8-26.7c-6.2 5.3-7.4 14.6-2.8 21.7 2.1 3.2 4.6 4.7 7.5 4.7 3.8 0 7.8-2.6 11.3-5.1v-.1c.5-6.1 1.2-14.5-3.6-19.2-1.7-1.7-4.1-2.4-7.3-2.4-1.7-.1-3.4.1-5.1.4zm77.5 26.2c-5.1 0-11.7-3.1-11.9-6.5v-.6c-.4-6-.8-13.4 3.8-17.9 1.7-1.7 4.2-2.5 7.4-2.5 1.7 0 3.5.2 5.2.4h.1c6.6 5.9 7.6 15.6 2.4 23-.8 1.1-1.8 2.4-3.4 3.3-.9.6-2.1.8-3.6.8zm-.8-27.2c-3.2 0-5.5.8-7.2 2.4-4.4 4.4-4 11.7-3.6 17.7v.6c.2 3.3 6.6 6.2 11.6 6.2 1.4 0 2.6-.3 3.4-.7 1.2-.7 2.2-1.7 3.3-3.2 5.1-7.2 4.1-16.7-2.3-22.4-1.7-.4-3.5-.6-5.2-.6z" class="st5"/><path d="M432.8 283.7c.2 16.9.8 33.9.4 50.9-.1 3.4.5 8.4 4.9 8.6 7.1-.4 5.6-13.6 5.4-17.7-.5-14.9-.1-29.8 0-44.7 4.7-1 10.9.9 15-2 1.1-.9 1.9-2 2.1-3.4.5-7.5-12.8-4-16.9-4.4-.8-9.1-.1-18.3-1.1-27.5-.3-2.4-.7-5.8-3.6-6.4-7-.8-6.4 8.4-6.4 12.8 0 7.4.3 14.8.6 22.2-5.6.4-11.5.6-17 1.7-5 1.1-6.6 7.6-.3 8.4 5.6.6 11.2-1.3 16.8-.9l.1 2.4z" class="st6"/><path d="M438.1 343.3c-3.4-.2-5.2-3.2-5.1-8.8.3-12.8.1-25.8-.2-38.4-.1-4.1-.2-8.3-.2-12.4v-2.1h-1.5c-2.1 0-4.3.3-6.3.5-2.1.3-4.3.5-6.4.5-.9 0-1.6 0-2.4-.1-2.6-.3-4.2-1.7-4.3-3.6-.1-2 1.6-4.5 4.6-5.1 4.6-.9 9.4-1.2 14-1.5 1-.1 1.9-.1 2.9-.2-.3-7.1-.6-14.6-.6-22.1v-1c0-3.3-.1-8.3 2.3-10.7 1.1-1.1 2.5-1.5 4.3-1.3 3 .6 3.5 4.3 3.7 6.5.5 4.7.6 9.6.6 14.3 0 4.3.1 8.7.5 13 .9.1 2.5 0 4.1-.2 1.6-.1 3.4-.3 5.1-.3 3.4 0 5.5.6 6.7 1.9.8.8 1.1 1.9 1 3.2-.2 1.4-1 2.6-2.2 3.5-2.1 1.5-4.9 1.7-7.5 1.7h-3.5c-1.1 0-2.5 0-3.9.3 0 3.5-.1 6.9-.1 10.4-.1 11.2-.3 22.8.1 34.1 0 .4 0 .9.1 1.4.2 5.3.7 16.1-5.8 16.5zm-7-62.1c.6 0 1.1 0 1.7.1.1 0 .2.1.2.2v2.3c.1 4.1.1 8.4.2 12.4.2 12.6.5 25.6.2 38.4-.1 5.4 1.5 8.3 4.7 8.4 6.2-.4 5.6-11 5.3-16.1 0-.5-.1-1-.1-1.4-.4-11.4-.2-22.9-.1-34.1 0-3.5.1-7 .1-10.5 0-.1.1-.2.1-.2 1.4-.3 2.9-.3 4.1-.3h3.5c2.6 0 5.3-.2 7.3-1.6 1.1-.9 1.8-2 2.1-3.3.1-1.2-.2-2.2-.9-2.9-1.1-1.2-3.2-1.7-6.4-1.7-1.7 0-3.5.2-5.1.3-1.8.1-3.4.3-4.3.2-.1 0-.2-.1-.2-.2-.4-4.4-.5-8.9-.5-13.2-.1-4.7-.1-9.5-.6-14.3-.2-2.1-.7-5.6-3.4-6.2h-.8c-1.3 0-2.4.4-3.2 1.2-2.2 2.3-2.2 7.2-2.2 10.4v1c0 7.5.3 15.1.6 22.2 0 .1-.1.2-.2.2-1 .1-2 .1-3 .2-4.6.3-9.4.6-14 1.5-2.8.6-4.4 2.9-4.3 4.8.1 1.8 1.5 3 3.9 3.3.7.1 1.5.1 2.4.1 2.1 0 4.3-.3 6.4-.5 2.2-.5 4.4-.7 6.5-.7z" style="fill:#891a1c"/><path d="M389.5 274c2.1.1 4.2-.4 5.8-1.8 1.7-1.7 2.8-4.1 3.5-6.4 1.3-4.8.1-11.1-4.4-13.8-1.5-.8-3.1-1.3-4.8-1.5h-.1v8.7c.4.1.8.2 1 .5 1 1.5.8 3.3.1 4.8-.3.5-.4.7-1 .7h-.1v8.8zm-4.9-1.1c.7.3 1.5.6 2.2.8.8.2 1.7.3 2.6.4v-8.8c-.1 0-.3 0-.4-.1-.5-.6-1.1-1.2-1.3-2-.1-.4-.1-.7-.1-1.1 0-1.2-.2-3.1 1.5-2.8h.3v-8.7c-4.1-.4-8 1.5-9.4 5.5-.6 1.9-.8 4-.8 6V262.9c.2 3.9 3.1 7.1 5.4 10" class="st6"/><path d="M389.8 274.2c-1 0-2-.1-3-.4-.8-.2-1.6-.5-2.3-.8 0 0-.1 0-.1-.1-.2-.2-.4-.5-.6-.7-2.2-2.7-4.7-5.7-4.8-9.4 0-2.8.2-5 .9-6.9 1.2-3.5 4.5-5.7 8.4-5.7.4 0 .8 0 1.2.1 1.8.2 3.5.8 4.8 1.5 4.7 2.9 5.8 9.2 4.5 14-.8 2.8-2 5-3.5 6.4-1.7 1.7-3.9 2-5.5 2zm-5.1-1.5c.7.3 1.4.5 2.2.8.9.2 1.9.4 2.9.4 2.2 0 4.1-.6 5.4-1.7 1.5-1.4 2.6-3.5 3.4-6.3 1.3-4.7.2-10.8-4.3-13.6-1.3-.7-2.9-1.2-4.7-1.5-.4 0-.8-.1-1.2-.1-3.8 0-6.9 2.1-8.1 5.5-.6 1.9-.9 4-.8 6.8.1 3.5 2.6 6.5 4.7 9.2.2.1.3.3.5.5zm4.9-7.3c-.2 0-.4 0-.5-.1h-.1c-.5-.6-1.1-1.3-1.3-2.1-.1-.4-.1-.7-.1-1.1v-.4c0-.8 0-1.8.5-2.3.3-.3.7-.4 1.2-.3.5.1 1.1.2 1.4.7 1 1.4 1 3.2.1 5-.3.3-.5.6-1.2.6zm-.4-.4c.1 0 .2.1.3.1.5 0 .6-.1.9-.6.9-1.7.9-3.3 0-4.6-.3-.3-.8-.4-1.2-.5-.4-.1-.7 0-.9.2-.4.4-.4 1.3-.4 2v.5c0 .3 0 .7.1 1 .2.7.7 1.3 1.2 1.9z" class="st5"/><path d="M388.1 299.6c.8 9.4 1.5 18.8 2.3 28.2.3 3.2 2.1 5.9 5.6 5.8 4.1-.4 4.2-4.7 4-7.9-.7-12.3-2-24.6-3.2-36.8-.3-2.9-.5-5.8-.9-8.7-.5-3.5-2.6-5.8-6.2-4.6-4.3 1.6-3.9 7.2-2.6 10.8l1 13.2z" class="st6"/><path d="M395.9 333.8c-3.7 0-5.4-3.2-5.6-6-.5-6.2-1-12.5-1.5-18.7-.3-3.2-.5-6.4-.8-9.5l-1.1-13.1c-1.1-3-2-9.2 2.7-11 .7-.2 1.3-.3 1.9-.3 2.4 0 4.2 1.9 4.6 5.1.3 2.5.6 5 .8 7.4l.1 1.3c.2 2.1.4 4.3.6 6.4 1 9.9 2 20.2 2.6 30.4.2 3.7-.1 7.6-4.2 8.1 0-.1-.1-.1-.1-.1zm-4.4-58.3c-.5 0-1.1.1-1.8.3-4.1 1.6-3.8 7.2-2.5 10.5l1.1 13.2c.3 3.2.5 6.4.8 9.5.5 6.1 1 12.4 1.5 18.6.2 2.7 1.8 5.8 5.4 5.7 3.7-.4 4-4.1 3.8-7.7-.6-10.1-1.6-20.4-2.6-30.3-.2-2.1-.4-4.3-.6-6.4l-.1-1.3c-.2-2.4-.5-5-.8-7.4-.4-2.9-1.9-4.7-4.2-4.7z" class="st5"/><path d="M353 335.6c-.1.8-.1 1.6 0 2.5.4 2.9 3.3 4.4 6 4.9 2.3.5 4.5-.1 6.4-1.5 1.5-1.1 2.4-2.5 2.5-4.3 0-1.7-.6-3.2-1.7-4.4-1.2-1.3-3-2.3-4.8-2.7h-.3l-.2-1.3c-2.9 1.1-6.7 2.1-7.6 5.5-.2.4-.3.9-.3 1.3" class="st6"/><path d="M360.5 343.4c-.5 0-1.1-.1-1.6-.2-1.7-.4-5.7-1.6-6.1-5.1-.1-.8-.1-1.6 0-2.5.1-.4.1-.9.2-1.3.8-3.1 3.9-4.3 6.7-5.3.4-.1.7-.3 1-.4h.2l.1.1.2 1.2h.2c1.7.3 3.5 1.3 4.9 2.7 1.2 1.3 1.8 2.8 1.8 4.5-.1 1.8-.9 3.2-2.5 4.5-1.7 1.2-3.4 1.8-5.1 1.8zm.2-14.4c-.3.1-.6.2-.8.3-2.6 1-5.6 2.1-6.4 5-.1.4-.2.9-.2 1.3-.1.9-.1 1.7 0 2.4.4 3.3 4.2 4.5 5.9 4.8 2.2.4 4.3-.1 6.2-1.4 1.5-1.2 2.3-2.5 2.4-4.2 0-1.6-.6-3-1.7-4.3-1.3-1.3-3-2.3-4.7-2.6H361.1c-.1 0-.1-.1-.2-.2l-.2-1.1z" class="st5"/><path d="M337.9 290.3c-.2-4.2-.4-14-7.1-12-4 1.5-3.7 6-3.4 9.5-3.3-2.4-7.5-3.5-11.4-4.5-2.3-.5-4.4-.9-6.4-1.1v10.4c1.9 0 3.8.1 5.6.3 1.8.2 3.2.7 4.5 1.9 6.4 5.7 9.6 15.3 7.6 23.6-1.9 7.7-8.9 17-17.7 16.1v9.8c1.3.1 2.5.1 3.8.1 7.2-.4 11.9-5.5 16.4-10.5.1 3.4-.3 8.8 3.6 10.4 6.3 2 5.5-8 5.3-11.5-.3-14.1 0-28.3-.8-42.5m-28.2-8c-3.1-.2-6.1.2-9.6 1.5-2.3.8-4.7 1.7-6.8 2.8-5.5 3.1-7.1 9.3-9.2 14.9-.7 2-1.1 4.1-1.4 6.2-.4 3.3-.8 6.9-.9 10.4v1.2c.1 4 .8 7.8 2.9 11.1l1.8 2.7c3.5 5.2 8.8 9.1 15.1 10.1 2.6.4 5.4.9 8.1 1.1v-9.8c-.1 0-.3 0-.4-.1-4.4-.7-9.1-2.4-12.6-5.2-2.3-1.8-4.4-2.5-4.8-5.5-.7-5.4-.8-11.4.3-16.7 1.1-5 3.4-8.6 7.4-11.8 1.3-.5 2.5-1.1 3.7-1.8.9-.6 1.7-.7 2.8-.7h3.6v-10.4z" class="st6"/><path d="M335.1 344.8c-.5 0-1-.1-1.6-.3-3.6-1.5-3.7-6.1-3.7-9.4v-.7c-4.5 4.8-9.1 9.8-16.3 10.2-3.4.1-6.9-.4-10.2-1-.6-.1-1.1-.2-1.7-.3-6-1-11.4-4.6-15.2-10.2l-1.8-2.7c-3.9-5.9-3-13.9-2.2-20.9.1-.6.1-1.3.2-1.9.3-2.3.7-4.4 1.4-6.3.2-.6.4-1.1.6-1.7 1.8-5.1 3.7-10.5 8.6-13.3 2-1.1 4.1-1.9 6.2-2.6l.6-.2c2.9-1 5.4-1.5 8.1-1.5 2.3 0 4.7.3 8 1.1 4 1 7.9 2 11.1 4.3-.3-2.9-.6-7.7 3.5-9.2.6-.2 1.2-.3 1.7-.3 5 0 5.4 7.6 5.6 11.7v.7c.5 8.3.5 16.8.6 25 .1 5.8.1 11.7.3 17.6v.7c.1 2.8.3 8.1-1.7 10.2-.4.7-1.2 1-2.1 1zm-5.2-11c.1 0 .1 0 0 0 .1 0 .2.1.2.2v1.1c.1 3.4.1 7.7 3.5 9.1.5.2 1 .2 1.4.2.8 0 1.5-.3 2.1-.9 1.9-2 1.7-7.2 1.6-9.9v-.7c-.2-5.9-.3-11.8-.3-17.6-.1-8.2-.2-16.7-.6-25v-.7c-.2-4-.6-11.4-5.2-11.4-.5 0-1 .1-1.6.3-3.7 1.4-3.6 5.5-3.2 9.3 0 .1 0 .1-.1.2h-.2c-3.2-2.3-7.1-3.4-11.3-4.4-3.3-.8-5.6-1.1-7.9-1.1-2.6 0-5.2.5-8 1.5l-.6.2c-2.1.8-4.2 1.5-6.1 2.6-4.9 2.8-6.7 8-8.5 13.1-.2.6-.4 1.1-.6 1.7-.7 1.9-1.1 3.9-1.4 6.2-.1.6-.1 1.2-.2 1.9-.8 7-1.7 14.9 2.2 20.7l1.8 2.7c3.7 5.5 9 9.1 15 10 .6.1 1.1.2 1.7.3 3.3.5 6.8 1.1 10.1.9 7.1-.4 11.7-5.4 16.1-10.2l.2-.2c-.2-.1-.1-.1-.1-.1zm-18.9 1c-.6 0-1.2 0-1.7-.1-4.9-.8-9.4-2.6-12.7-5.2-.5-.4-1-.7-1.4-1-1.7-1.2-3.1-2.1-3.4-4.6-.5-4.4-.9-10.8.3-16.8 1.1-5 3.4-8.7 7.5-11.9 1.2-.5 2.5-1.1 3.7-1.8.9-.6 1.7-.7 2.9-.7h3.2c1.9 0 4 0 6.1.3 2 .2 3.4.8 4.6 1.9 6.5 5.9 9.6 15.4 7.6 23.8-2 7.8-8.8 16.1-16.7 16.1zm-11.3-39.4c-4 3.2-6.3 6.8-7.3 11.7-1.2 5.9-.9 12.4-.3 16.7.3 2.3 1.6 3.2 3.3 4.4.5.3.9.6 1.4 1 3.3 2.5 7.7 4.3 12.5 5.1.6.1 1.1.1 1.7.1 7.8 0 14.4-8.1 16.3-16 2-8.3-1.1-17.7-7.5-23.5-1.2-1.1-2.5-1.6-4.4-1.8-2.1-.2-4.1-.3-6-.3h-3.2c-1.1 0-1.8.1-2.7.7-1.3.8-2.6 1.4-3.8 1.9z" class="st5"/><path d="M238.2 282.5c5.6-.4 11.1 1.5 16.1 4.1 4.6 2.4 6 5.8 7.9 10.5 1.4 3.6 2.7 6.9 3.2 10.8.4 3.3.8 6.9.9 10.4v1.2c-.1 4-.8 7.8-2.9 11-.7 1.1-1.5 2.2-2.2 3.3-3.7 5.6-9.4 8.7-15.9 9.7-2.3.3-4.6.7-7 .9v-9.9c.8-.1 1.7-.2 2.6-.4 2.9-.8 6-1.7 8.6-3.3 3.9-2.4 6.5-3.8 6.9-8.4.5-6.1.6-12.5-1.3-18.3-1.2-3.6-3.7-6.4-6.6-8.7-1.5-.6-3.1-1.8-4.6-2.3-.4-.1-.8-.2-1.2-.2-1.5-.1-2.9-.2-4.4-.2v-10.2zm-29.1 41.3c.2-10.6.2-21.2.7-31.8.9-18.4 0-36.9 1.3-55.3.2-2.8.4-5.7 3.9-5.8 7 .3 5.1 7.8 5 12.5-.5 15.2-1 30.5-.7 45.7 4.4-4 11.5-5.4 17.1-6.3.6-.1 1.2-.2 1.8-.2v10.3c-4.3-.1-8.4.4-11.6 3.5-3 3-4.9 7.2-6.1 11.2-3.3 11.3 4.9 28.1 17.7 27v9.9c-1 .1-2 .1-3 .1-7.7-.1-12.5-5.2-17.4-10.5-.1 3.5.2 8.8-3.6 10.4-6.3 2-5.5-8-5.4-11.4.2-3.1.3-6.2.3-9.3" class="st6"/><path d="M212.7 345c-.9 0-1.7-.3-2.3-1-2.1-2.1-1.8-7.4-1.7-10.2v-.8c.1-3.1.2-6.2.2-9.3 0-2.9.1-5.8.1-8.7.1-7.6.2-15.4.5-23.1.4-8.2.4-16.6.5-24.7.1-10 .1-20.4.8-30.6v-.1c.2-2.8.5-5.7 4.1-5.9 1.8.1 3.1.6 4 1.6 1.8 2.1 1.5 5.7 1.3 8.8-.1.8-.1 1.6-.2 2.3-.5 15.3-1 30.2-.7 45.3 4.2-3.6 10.6-5.1 16.9-6.1 5.4-.8 11.2.5 18 3.9 4.7 2.5 6.1 6.1 7.9 10.6l.1.2c1.4 3.5 2.7 6.8 3.1 10.6.1.6.1 1.2.2 1.9.8 7 1.7 15-2.3 20.9l-1 1.5-1.2 1.8c-3.6 5.3-9.1 8.7-16 9.8-.4.1-.8.1-1.2.2-2.8.4-5.7.9-8.6.9h-.2c-7.7-.1-12.6-5.2-17.2-10.2v.7c-.1 3.4-.1 8-3.7 9.5-.4.1-.9.2-1.4.2zm2.4-114c-3.3.1-3.5 2.7-3.7 5.5v.1c-.7 10.1-.8 20.5-.8 30.6 0 8.1-.1 16.5-.5 24.7-.4 7.7-.4 15.5-.5 23.1 0 2.9-.1 5.8-.1 8.7-.1 3.2-.1 6.3-.2 9.3v.8c-.1 2.7-.3 7.9 1.6 9.9.8.9 2 1.1 3.5.6 3.4-1.4 3.4-5.7 3.5-9.1v-1.1c0-.1 0-.1.1-.2h.2c4.7 5.1 9.6 10.3 17.3 10.4h.2c2.9 0 5.7-.4 8.5-.9.4-.1.8-.1 1.2-.2 6.8-1 12.3-4.4 15.8-9.6l1.2-1.8 1-1.5c3.9-5.8 3-13.7 2.2-20.7-.1-.6-.1-1.3-.2-1.9-.4-3.8-1.7-7.1-3.1-10.5l-.1-.2c-1.8-4.5-3.2-8-7.8-10.4-6.7-3.4-12.5-4.7-17.8-3.9-6.4 1-12.9 2.5-17 6.2-.1 0-.1.1-.2 0-.1 0-.1-.1-.1-.2-.3-15.2.2-30.3.7-45.7 0-.7.1-1.5.2-2.3.3-3.1.6-6.6-1.2-8.6-1-.5-2.2-1-3.9-1.1zm22 103.8c-4.7 0-9.1-2.4-12.5-6.9-4.4-5.8-6.1-14-4.3-20.4 1.5-4.9 3.5-8.7 6.2-11.3 3.3-3.2 7.3-3.6 10.9-3.6 1.5 0 3 .1 4.4.2h.8c.4 0 .8.1 1.2.2.9.3 1.8.8 2.7 1.3.6.4 1.3.7 2 1 3.4 2.7 5.6 5.5 6.7 8.8 2 6 1.8 12.7 1.3 18.4-.4 4.4-2.9 6-6.4 8.2l-.6.4c-2.7 1.6-5.9 2.6-8.7 3.3-1.2.3-2.5.4-3.7.4zm.4-41.8c-3.5 0-7.5.4-10.7 3.5-2.6 2.6-4.6 6.3-6.1 11.2-1.8 6.3-.1 14.4 4.2 20.1 3.3 4.3 7.6 6.7 12.2 6.7 1.2 0 2.4-.2 3.7-.5 2.7-.7 5.9-1.6 8.6-3.2l.6-.4c3.5-2.2 5.9-3.6 6.2-7.9.5-5.7.7-12.3-1.3-18.3-1.1-3.1-3.2-6-6.5-8.6-.7-.3-1.3-.7-2-1-.9-.5-1.7-1-2.6-1.3-.4-.1-.8-.2-1.2-.2h-.8c-1.4 0-2.9-.1-4.3-.1z" class="st5"/><path d="M149.8 278.2c-2.5 5.2-5.1 10.6-6.3 16.2-1.1 5.3-1.8 10.8-1.7 16.2.1 7.6 4.5 13.4 10.9 17.1 3.2 1.9 6.7 3.4 10.5 3.5 3.7 0 7.4.1 11-.1 4.9-.4 9.2-2.7 13-5.7 1.9-1.5 3.4-3.3 4.4-5.5 4-8.9 4.5-19 1.8-28.3-1.2-4-2.7-8.7-5.2-12.1-1.9-2.4-4.5-2.6-7.2-1.5-5.4 2.6-2 8-.2 11.8 1.5 3.3 2.8 6 3.1 9.7.3 3.8-.1 7.7-.9 11.4-1.5 5.9-5.6 10-11.5 11.3-5.3 1.1-11.1.5-15.5-3-4.3-3.4-4.7-8-4.7-13.3.2-6.4 2.6-12.9 5.2-18.7 1.6-3.5 4.6-6.6 3.2-10.7-1.5-3.6-5-3.5-7.9-1.6l-.7.5c-.5 1-.9 1.9-1.3 2.8" class="st6"/><path d="M168.8 331.5H163c-4.1 0-7.6-1.8-10.6-3.5-7-4.1-10.9-10.2-11-17.3 0-4.9.5-10.2 1.7-16.2 1.1-5.4 3.6-10.6 6-15.5l.4-.7c.4-.9.9-1.8 1.3-2.7 0 0 0-.1.1-.1l.7-.5c1.3-.9 2.7-1.3 4-1.3 1.9 0 3.4 1.1 4.2 3 1.1 3.1-.4 5.7-1.8 8.2-.5.8-1 1.7-1.4 2.6-2.5 5.6-5 12.2-5.2 18.6-.1 4.9.2 9.7 4.6 13.2 2.9 2.3 6.5 3.5 10.6 3.5 1.5 0 3.1-.2 4.7-.5 5.9-1.3 9.9-5.3 11.4-11.2.9-3.6 1.2-7.5.9-11.3-.3-3.6-1.6-6.3-3-9.4l-.1-.2-.6-1.2c-1.3-2.6-2.7-5.6-1.9-8 .4-1.2 1.3-2.1 2.7-2.8 1.1-.5 2.1-.7 3.1-.7 1.7 0 3.2.8 4.4 2.2 2.4 3.3 3.8 7.7 5.2 12.2 2.8 9.6 2.2 19.7-1.8 28.5-1 2.1-2.5 3.9-4.5 5.5-4.5 3.5-8.7 5.4-13.1 5.7-1.4-.2-3-.1-5.2-.1zm-17.6-55.9c-.4.9-.9 1.8-1.3 2.7l-.4.7c-2.4 4.9-4.8 10.1-5.9 15.5-1.2 6-1.8 11.3-1.7 16.2.1 6.9 3.9 12.9 10.8 17 2.9 1.7 6.4 3.4 10.4 3.4h5.8c2.1 0 3.8 0 5.3-.1 4.3-.3 8.5-2.2 12.9-5.7 2-1.6 3.4-3.4 4.4-5.4 3.9-8.7 4.5-18.7 1.8-28.2-1.3-4.5-2.8-8.8-5.1-12.1-1.1-1.4-2.4-2.1-4.1-2.1-.9 0-1.9.2-2.9.7-1.3.7-2.2 1.5-2.6 2.6-.8 2.3.6 5.2 1.9 7.8l.6 1.2.1.2c1.5 3.2 2.8 5.9 3.1 9.6.3 3.9-.1 7.8-.9 11.5-1.5 6.1-5.7 10.1-11.7 11.5-1.6.3-3.2.5-4.8.5-4.2 0-7.9-1.2-10.8-3.5-4.5-3.6-4.8-8.4-4.7-13.5.2-6.5 2.7-13.1 5.2-18.8.4-.9.9-1.8 1.4-2.6 1.4-2.5 2.8-4.9 1.8-7.9-.9-2.3-2.6-2.8-3.8-2.8-1.2 0-2.5.4-3.8 1.3l-1 .3z" class="st5"/><path d="M94 338.5c.3-5.1 0-10.3-.1-15.4-.1-7.8.3-15.7-.2-23.5 0-.4.7-1.4 1-1.8 3.5-5.5 9.7-9.1 16.4-7.6.2.1.5.1.7.2 4.6 1.5 11.1 11.5 16.1 6.1 2.1-2.6 1.5-5.9-1.1-7.9-3-2.2-5.7-4.8-9.2-6.1-1.4-.5-2.9-.8-4.3-1-7.3-1.1-15.6-.6-20.9 5.1-.5-1.1-1.5-2-2.6-2.6-3.1-1.2-5.1.9-6.9 3.1.6 15.7 1.3 31.5 2 47.2.2 3.5-.4 12.5 5.6 11.1 3.2-1.1 3.4-4.2 3.5-6.9" class="st6"/><path d="M89.5 345.7c-4.4 0-4.5-6.3-4.6-10.1v-1.3c-.5-12.1-1-24.4-1.5-36.3l-.5-11v-.1c1.4-1.8 3-3.5 5.2-3.5.6 0 1.2.1 1.8.4 1.1.5 2 1.4 2.5 2.4 3.5-3.6 8.5-5.5 14.9-5.5 1.9 0 3.9.2 5.9.5 1.7.3 3.1.6 4.4 1.1 2.6 1 4.8 2.7 6.9 4.3l2.4 1.8c1.4 1.1 2.2 2.5 2.4 4.1.2 1.5-.3 2.9-1.3 4.1-1 1.1-2.1 1.7-3.4 1.7-2.6 0-5.2-2.2-7.8-4.3-1.8-1.5-3.5-2.9-5-3.4-.2-.1-.5-.1-.7-.2-1-.2-2-.3-2.9-.3-5.2 0-10.2 2.9-13.3 7.9-.1.1-.1.2-.2.3-.3.4-.8 1.1-.7 1.4.4 5.1.3 10.3.2 15.3 0 2.7-.1 5.5 0 8.1 0 1.5.1 3 .1 4.5.1 3.6.2 7.3 0 11v.1c-.2 2.8-.3 5.9-3.5 6.9-.5 0-.9.1-1.3.1zm-6.2-58.6.4 10.8c.5 11.9 1 24.2 1.5 36.3v1.3c.1 3.7.2 9.8 4.2 9.8.3 0 .7 0 1.1-.1 2.9-1 3.1-3.8 3.3-6.6v-.1c.2-3.6.1-7.3 0-10.9 0-1.5-.1-3-.1-4.5v-8.2c.1-5 .1-10.3-.2-15.3 0-.4.3-1 .8-1.6.1-.1.2-.2.2-.3 3.2-5 8.2-8 13.6-8 1 0 2 .1 3 .3.3.1.5.1.8.2 1.6.5 3.3 1.9 5.2 3.4 2.5 2.1 5.1 4.2 7.6 4.2 1.2 0 2.2-.5 3.2-1.5.9-1.1 1.4-2.4 1.2-3.8-.2-1.5-1-2.8-2.2-3.9l-2.4-1.8c-2.1-1.6-4.2-3.3-6.8-4.3-1.2-.4-2.6-.8-4.3-1-2.1-.3-4-.5-5.9-.5-6.4 0-11.4 1.9-14.8 5.5 0 0-.1.1-.2.1s-.1 0-.1-.1c-.4-1-1.4-1.9-2.5-2.5-.6-.2-1.1-.3-1.7-.3-2 0-3.6 1.7-4.9 3.4z" class="st5"/><path d="M67.8 290.1c-.3-4.2-.5-13.4-7.1-11.5-4 1.5-3.7 6-3.4 9.4-4.3-3.2-10.6-4.5-15.8-5.3-.7-.1-1.4-.2-2.1-.2v10.4c1.9 0 3.8.1 5.7.3 1.8.2 3.2.7 4.6 1.8 6.5 5.8 9.7 15.5 7.5 23.9-2.1 7.7-9 16.4-17.7 15.5v9.8c1.3.1 2.5.1 3.8.1 7.3-.4 11.9-5.5 16.5-10.4.1 3.4-.3 8.7 3.6 10.4 6.4 2 5.5-8.3 5.3-11.8-.4-14.1-.1-28.3-.9-42.4m-28.3-7.6c-3.4-.2-6.4.3-9.8 1.6-2.2.8-4.5 1.6-6.6 2.8-5.5 3.1-7.2 9.3-9.2 14.8-1.7 4.9-1.9 10.7-2.1 15.9v2.9c0 3 .4 6 1.9 8.6.9 1.4 1.8 2.8 2.8 4.1 3.4 5 8.7 8.9 14.8 9.9 2.7.4 5.5.9 8.3 1.1v-9.8c-.6-.1-1.1-.2-1.7-.3-3.6-.9-7.5-1.9-10.5-4.2-2.5-1.9-5.2-2.9-5.7-6.2-.6-5.1-.8-10.9.2-16 1-5.3 3.3-9 7.6-12.4 1.3-.5 2.5-1.1 3.7-1.8.9-.6 1.7-.7 2.8-.7h3.6v-10.3z" class="st6"/><path d="M64.9 344.7c-.5 0-1-.1-1.6-.3-3.6-1.5-3.7-6.1-3.7-9.4v-.7c-4.5 4.8-9.2 9.8-16.4 10.2H42c-3.1 0-6.2-.5-9.2-1-.6-.1-1.2-.2-1.7-.3-5.9-.9-11.3-4.5-15-10-.3-.4-.6-.9-.9-1.3-.6-.9-1.3-1.9-1.9-2.8-2-3.4-2-7.3-1.9-11.6.2-5.1.4-10.9 2.1-15.9.2-.5.4-1.1.6-1.6 1.8-5.2 3.7-10.5 8.7-13.3 2-1.1 4.1-1.9 6.2-2.6l.5-.2c3.2-1.2 5.7-1.7 8.4-1.7 1.2 0 2.3.1 3.6.3 5.3.9 11.3 2.2 15.5 5.1-.3-2.9-.6-7.7 3.5-9.2.6-.2 1.2-.3 1.7-.3 4.9 0 5.3 7.4 5.6 11.3v.6c.5 8.3.6 16.8.7 25 .1 5.7.1 11.6.3 17.4v.8c.1 2.9.4 8.2-1.7 10.4-.5.8-1.2 1.1-2.2 1.1zm-5.1-10.9c.1 0 .2.1.2.2v1.1c.1 3.4.1 7.7 3.5 9.1.5.2 1 .2 1.4.2.8 0 1.5-.3 2.1-.9 2-2.1 1.7-7.3 1.6-10.1v-.8c-.2-5.8-.3-11.7-.3-17.4-.1-8.2-.2-16.7-.7-25v-.6c-.2-3.8-.6-11-5.2-11-.5 0-1.1.1-1.6.3-3.6 1.3-3.7 5.2-3.2 9.2 0 .1 0 .1-.1.2h-.2c-4.2-3.1-10.3-4.4-15.7-5.3-1.2-.2-2.4-.3-3.6-.3-2.6 0-5.1.5-8.3 1.6l-.5.2c-2.1.7-4.2 1.5-6.1 2.6-4.9 2.7-6.7 8-8.5 13.1-.2.5-.4 1.1-.6 1.6-1.7 5-1.9 10.7-2.1 15.8-.1 4.3-.1 8.1 1.9 11.4.6 1 1.2 1.9 1.9 2.8.3.4.6.9.9 1.3 3.6 5.3 9 8.9 14.7 9.8.6.1 1.2.2 1.7.3 3 .5 6.1 1 9.1 1h1.1c7.1-.4 11.7-5.3 16.2-10.1l.2-.3h.2zm-19.1.9c-1 0-2-.1-3-.4-3.7-.9-7.6-2-10.5-4.2-.5-.4-1.1-.8-1.7-1.2-1.9-1.3-3.7-2.5-4.1-5.1-.7-5.8-.7-11.5.2-16.1 1-5.3 3.4-9.2 7.6-12.5 1.2-.5 2.5-1.1 3.7-1.8.9-.6 1.7-.7 2.9-.7h3.3c1.9 0 3.9 0 6 .3 2 .2 3.4.8 4.7 1.9 6.7 6 9.8 15.7 7.6 24.1-2.1 7.6-8.6 15.7-16.7 15.7zm-11.3-39.2c-4.2 3.3-6.4 7-7.5 12.3-.8 4.5-.9 10.2-.2 15.9.4 2.5 2 3.6 3.9 4.9.6.4 1.1.8 1.7 1.2 2.9 2.2 6.7 3.2 10.4 4.1 1 .2 1.9.3 2.9.3 7.9 0 14.3-8 16.3-15.4 2.2-8.3-.8-17.9-7.4-23.8-1.2-1.1-2.5-1.6-4.5-1.8-2.1-.2-4.1-.3-6-.3h-3.3c-1.1 0-1.8.1-2.7.7-1.1.9-2.4 1.4-3.6 1.9z" class="st5"/></svg>