<svg xmlns="http://www.w3.org/2000/svg" xml:space="preserve" id="Layer_1" x="0" y="0" style="enable-background:new 0 0 485.8 133.5" version="1.1" viewBox="0 0 485.8 133.5"><style>.st0{fill:#0047bb}</style><g id="Logo_PosteID_abilitato_SPID"><path d="M366 48.7h-2.7L345 22.3h-.1v26.4h-2.7V17.9h2.7l18.3 26.3h.1V17.9h2.7v30.8zM394.3 17.9v20.5c0 3.4-1.1 6-3.3 7.9-2.2 1.9-5 2.9-8.4 2.9-3.4 0-6.1-1-8.3-2.9-2.1-1.9-3.2-4.6-3.2-7.9V17.9h2.7v20.5c0 2.7.8 4.8 2.5 6.3 1.6 1.6 3.8 2.3 6.3 2.3 2.6 0 4.8-.8 6.5-2.3 1.7-1.6 2.5-3.7 2.5-6.3V17.9h2.7zM423 35.8c0 4-1.1 7.2-3.4 9.7-2.3 2.5-5.4 3.7-9.2 3.7-3.8 0-6.8-1.2-9.1-3.7s-3.4-5.7-3.4-9.7v-5c0-4 1.1-7.2 3.4-9.7 2.2-2.5 5.3-3.7 9.1-3.7s6.9 1.2 9.2 3.7c2.3 2.5 3.4 5.7 3.4 9.7v5zm-2.6-5.1c0-3.3-.9-6-2.7-8-1.8-2-4.2-3.1-7.4-3.1-3.1 0-5.5 1-7.2 3.1-1.7 2-2.6 4.7-2.6 8v5.1c0 3.4.9 6.1 2.6 8.1 1.7 2 4.1 3 7.2 3 3.2 0 5.6-1 7.4-3 1.8-2 2.6-4.7 2.6-8.1v-5.1zM435.8 43.3l.6 2.2h.1l.6-2.2 9.7-25.4h2.9l-12 30.8h-2.5l-12-30.8h2.9l9.7 25.4zM475.2 35.8c0 4-1.1 7.2-3.4 9.7-2.3 2.5-5.4 3.7-9.2 3.7-3.8 0-6.8-1.2-9.1-3.7s-3.4-5.7-3.4-9.7v-5c0-4 1.1-7.2 3.4-9.7 2.2-2.5 5.3-3.7 9.1-3.7s6.9 1.2 9.2 3.7c2.3 2.5 3.4 5.7 3.4 9.7v5zm-2.6-5.1c0-3.3-.9-6-2.7-8-1.8-2-4.2-3.1-7.4-3.1-3.1 0-5.5 1-7.2 3.1-1.7 2-2.6 4.7-2.6 8v5.1c0 3.4.9 6.1 2.6 8.1 1.7 2 4.1 3 7.2 3 3.2 0 5.6-1 7.4-3 1.8-2 2.6-4.7 2.6-8.1v-5.1zM354.4 72.3h-5.1l-1 3.2h-4.2l5.6-16.4h4.2l5.6 16.4h-4.2l-.9-3.2zm-4.2-2.9h3.3l-1.6-5.1h-.1l-1.6 5.1zM360.9 75.5V59.1h5.6c2.1 0 3.8.4 5 1.1 1.2.8 1.8 1.9 1.8 3.4 0 .8-.2 1.5-.6 2.1-.4.6-1 1.1-1.8 1.4 1 .2 1.8.6 2.3 1.3.5.7.7 1.4.7 2.3 0 1.6-.6 2.8-1.7 3.6-1.1.8-2.7 1.2-4.9 1.2h-6.4zm4-9.6h1.6c1 0 1.7-.2 2.2-.5.5-.3.7-.8.7-1.4 0-.7-.2-1.2-.7-1.5-.5-.3-1.2-.5-2.1-.5H365v3.9zm0 2.6v4.1h2.6c.9 0 1.5-.2 1.9-.5.4-.3.6-.8.6-1.5s-.2-1.2-.6-1.6c-.4-.4-1-.6-1.9-.6h-2.6zM380.6 75.5h-4V59.1h4v16.4zM387.6 72.6h7.4v2.9h-11.4V59.1h4v13.5zM401.3 75.5h-4V59.1h4v16.4zM416 62h-4.6v13.5h-4V62h-4.5v-2.9h13V62zM425.3 72.3h-5.1l-1 3.2H415l5.6-16.4h4.2l5.6 16.4h-4.2l-.9-3.2zm-4.2-2.9h3.3l-1.6-5.1h-.1l-1.6 5.1zM442.7 62h-4.6v13.5h-4V62h-4.5v-2.9h13V62zM458.3 68.8c0 2-.7 3.7-2 5-1.3 1.3-3.1 2-5.3 2-2.2 0-4-.7-5.3-2-1.4-1.3-2-3-2-5v-3c0-2 .7-3.7 2-5 1.4-1.3 3.1-2 5.3-2 2.2 0 3.9.7 5.3 2s2 3 2 5v3zm-4-3c0-1.2-.3-2.1-.9-2.9-.6-.8-1.4-1.1-2.5-1.1s-1.9.4-2.5 1.1c-.6.7-.9 1.7-.9 2.9v3c0 1.2.3 2.2.9 2.9.6.8 1.4 1.1 2.5 1.1 1 0 1.9-.4 2.4-1.1.6-.8.9-1.7.9-2.9v-3z" class="st0"/><g id="Logo_Spid_Ufficiale"><path id="XMLID_21_" d="M369.6 93.6c-5.8-.7-9.9-1.1-12.2-1.1-2.3 0-3.8.2-4.5.6-.7.4-1 1-1 1.9 0 .9.5 1.5 1.4 1.8.9.3 3.2.8 7 1.5 3.8.6 6.4 1.7 8 3.2 1.6 1.5 2.4 3.9 2.4 7.2 0 7.2-4.7 10.8-14.1 10.8-3.1 0-6.8-.4-11.2-1.2l-2.2-.4.3-7.5c5.8.7 9.8 1.1 12.1 1.1 2.3 0 3.8-.2 4.6-.6.8-.4 1.2-1.1 1.2-1.9 0-.8-.4-1.5-1.3-1.9-.9-.4-3.1-.9-6.7-1.5s-6.3-1.6-8.1-2.9c-1.8-1.4-2.7-3.8-2.7-7.4 0-3.5 1.3-6.2 3.8-8 2.5-1.8 5.8-2.7 9.7-2.7 2.8 0 6.5.4 11.3 1.3l2.3.4-.1 7.3z" class="st0"/><path d="M393 92.5c-1.7 0-3.5.3-5.3 1l-.8.3v17.5c2.1.3 3.8.4 5.1.4 2.7 0 4.6-.8 5.6-2.3 1-1.5 1.5-4.1 1.5-7.8 0-6-2-9.1-6.1-9.1m-15.5 40.3V85.3h9.3v1.8c3-1.7 5.7-2.6 8-2.6 4.7 0 8.2 1.4 10.4 4.1 2.2 2.7 3.4 7.3 3.4 13.8 0 6.5-1.2 11-3.7 13.5s-6.5 3.8-12.2 3.8c-1.5 0-3.2-.1-5-.4l-.8-.1V133h-9.4zM462.5 110.7l1-.2V92.9c-2.6-.4-4.9-.7-6.9-.7-3.8 0-5.7 3.2-5.7 9.6 0 3.5.4 6 1.3 7.4.8 1.5 2.2 2.2 4.2 2.2 1.9.1 4-.2 6.1-.7m10.4-38.8v46.9h-9.3v-1.4c-3.3 1.5-6.1 2.2-8.5 2.2-5.1 0-8.6-1.4-10.7-4.2-2-2.8-3-7.3-3-13.4 0-6.1 1.2-10.5 3.6-13.3 2.4-2.8 6-4.2 10.9-4.2 1.5 0 3.6.2 6.2.7l1.3.3V71.9h9.5z" class="st0"/><path id="XMLID_16_" d="M425 104.7c-2.9 0-5.3-.9-7.1-2.8-1.9-1.9-2.8-4.2-2.8-6.9 0-2.8.9-5.1 2.8-6.9 1.9-1.8 4.2-2.7 7.1-2.7 2.9 0 5.2.9 7.1 2.8 1.8 1.9 2.7 4.2 2.7 6.9 0 2.8-.9 5-2.7 6.9-1.9 1.8-4.2 2.7-7.1 2.7" class="st0"/><path id="XMLID_15_" d="M415.1 118.3c0-2.8.9-5.1 2.8-6.9 1.9-1.8 4.2-2.7 7.1-2.7 2.9 0 5.2.9 7.1 2.8 1.8 1.9 2.7 4.2 2.7 6.9" class="st0"/></g><g id="Logo_PosteID_ufficiale"><path id="XMLID_14_" d="M0 0h219.4v133.5H0z" style="fill:#fff"/><path id="XMLID_13_" d="M199.9 0h133.5v133.5H199.9z" style="fill:#eddb00"/><path d="M24.5 85.9v-44h20.2c10.8 0 17.9 3.5 17.9 14.1s-7.1 14.1-17.9 14.1h-8v15.7H24.5zm18.4-24.3c4.8-.2 6.8-2.4 6.8-5.6 0-3.2-2-5.4-6.8-5.6h-6.3v11.2h6.3zM98.6 70.6c0 11.3-8.2 16.2-17.8 16.2S63 81.9 63 70.6c0-11.3 8.2-16.2 17.8-16.2s17.8 4.9 17.8 16.2m-17.8 9.5c4.9 0 5.9-5.2 5.9-9.5s-1-9.5-5.9-9.5-5.9 5.2-5.9 9.5c-.1 4.3 1 9.5 5.9 9.5" class="st0"/><path id="XMLID_8_" d="M118.8 64.7c0-1-.2-2-.7-2.6-.6-.7-1.6-1.1-3.2-1.1-1.7 0-2.7 1-2.7 2.7 0 2.3 4.7 2.1 11.9 4.4 3.7 1.2 6.2 3.4 6.2 8.4 0 8.1-7.6 10.2-14.6 10.2-7.5 0-14.8-1.5-14.8-10.9h11c-.2.9.1 2 .8 2.7.7.8 1.6 1.4 2.7 1.4 2.3 0 3.9-.9 3.9-2.8 0-5.4-18.1-2.2-18.1-13.3 0-7.6 8.1-9.6 14.1-9.6 7.3 0 14 1.9 14.4 10.4h-10.9z" class="st0"/><path id="XMLID_7_" d="M137.9 55.3v-4.6l11.6-4.4v9h6.7v7.3h-6.7v12.1c0 .8-.5 4.8 2.2 4.8 1.5 0 3.1 0 4.5-.2v6.9c-2.6.5-4.5.6-6.2.6-7.9 0-12.6-1.1-12-10.5V62.6h-6v-7.3h5.9z" class="st0"/><path d="M169.6 72.9c-.1 4 1 7.4 5.3 7.4 3.2 0 5.2-1.5 5.7-4.4h10.7c-.4 4-2.9 6.8-5.8 8.5-2.7 1.7-6.1 2.4-9.7 2.4-12.2 0-17.1-5.2-17.1-17.3 0-9.7 7.3-15.2 16.5-15.2 12.4 0 16.4 7.1 16.4 18.5h-22zm11-6.2c0-1.6-.5-3.3-1.4-4.6-.9-1.3-2.3-2.1-4-2-4 .2-5 3.1-5.3 6.5h10.7z" class="st0"/><path id="XMLID_4_" d="M0 133.5h199.9v-11.4H11.4V11.4h188.5V0H0z" class="st0"/><path d="M230.4 97.4V33.8h12.4v63.6h-12.4zM297.4 91.4c-4.2 4.2-10.2 6.1-16.8 6.1h-23V33.8h23c6.6 0 12.6 1.9 16.8 6.1 7.1 7.1 6.4 15.9 6.4 25.5 0 9.5.7 18.8-6.4 26zm-8.7-42.5c-2.1-2.6-5-3.9-9.3-3.9H270v41.4h9.4c4.3 0 7.1-1.3 9.3-3.9 2.3-2.9 2.7-7.4 2.7-17.1s-.4-13.7-2.7-16.5z" class="st0"/></g></g></svg>