<svg xmlns="http://www.w3.org/2000/svg" xml:space="preserve" id="Livello_1" x="0" y="0" style="enable-background:new 0 0 366.19 133.57" version="1.1" viewBox="0 0 366.19 133.57"><style>.st0{fill:#ed6c25}.st1{fill-rule:evenodd;clip-rule:evenodd;fill:#26201f}</style><path d="M51.57 19.69c4.64-7.57 12.81-12.8 22.34-13.3 15.03-.79 27.9 10.46 29.25 25.32h-.86a5.8 5.8 0 0 0-5.8 5.81V52.5c-4.8 5.55-11.76 9.22-19.67 9.64-6.03.32-11.72-1.31-16.44-4.33-4.17-3.83-5.82 0-6.83 1.54-4.41 6.72-11.86 11.33-20.51 11.78-14.43.75-26.74-10.33-27.5-24.76-.75-14.43 10.33-26.74 24.76-27.5 4.47-.23 8.73.66 12.51 2.45 2.22 1.05 7.67.13 8.75-1.63" class="st0"/><path d="m129.53 109.93-2.01-5.04c-.23-.62-.79-.92-1.57-.62a21.17 21.17 0 0 1-6.94 1.13c-3.13 0-5.71-1.03-7.83-2.98-2.13-1.96-3.25-4.32-3.25-7.19V38c0-.82-.34-1.13-1.23-1.13H101c-.78 0-1.23.31-1.23 1.13v57.24c0 4.93 1.9 9.14 5.59 12.54 3.81 3.39 8.28 5.14 13.65 5.14 3.02 0 6.38-.51 9.74-1.55.78-.31 1-.82.78-1.44M171.18 87.53V76.57c0-5.1-1.91-9.5-5.93-13.18-4.03-3.7-8.84-5.55-14.54-5.55-5.6 0-10.41 1.85-14.43 5.45-4.03 3.69-6.04 8.08-6.04 13.29v16.41c0 5.55 2.13 10.17 6.37 14.08 4.25 3.9 9.29 5.86 15.22 5.86 6.49 0 12.31-1.65 17.34-5.04.67-.41.78-1.03.33-1.54l-3.36-4.42c-.45-.51-1.01-.61-1.57-.21-3.81 2.47-8.05 3.7-12.75 3.7-3.69 0-6.82-1.23-9.51-3.7-2.57-2.36-3.91-5.24-3.91-8.73V89.8c0-.72.45-1.13 1.23-1.13h30.43c.78-.01 1.12-.42 1.12-1.14m-8.17-7.49c0 .71-.34 1.12-1.12 1.12h-22.26c-.78 0-1.23-.41-1.23-1.12v-3.47c0-3.07 1.23-5.72 3.69-7.97 2.35-2.24 5.26-3.27 8.61-3.27 3.36 0 6.26 1.02 8.73 3.27 2.46 2.25 3.58 4.9 3.58 7.97v3.47zM220.33 90.44V77.53c0-5.43-2.13-10.04-6.38-13.94-4.14-3.9-9.29-5.75-15.22-5.75-4.92 0-9.4 1.44-13.54 4.42-.11.11-.34.21-.67.21-.78 0-1.23-.41-1.23-1.13v-1.23c0-.82-.34-1.13-1.23-1.13h-3.69c-.78 0-1.23.31-1.23 1.13v65.88c0 .72.45 1.13 1.23 1.13h5.82c.78 0 1.12-.41 1.12-1.13V108c0-.72.45-1.03 1.23-1.03.45 0 .67.1.89.21 3.36 2.06 7.16 3.08 11.3 3.08 5.93 0 11.08-1.96 15.22-5.86 4.26-3.91 6.38-8.53 6.38-13.96m-8.16 0c0 3.38-1.34 6.25-3.92 8.71-2.57 2.36-5.82 3.58-9.51 3.58-3.69 0-6.82-1.23-9.4-3.58-2.69-2.46-4.03-5.33-4.03-8.71V77.53c0-3.38 1.34-6.15 4.03-8.61 2.69-2.46 5.7-3.59 9.4-3.59 3.69 0 6.71 1.13 9.4 3.59 2.69 2.46 4.03 5.23 4.03 8.61v12.91z" class="st1"/><path d="M311.74 110.34V38.01c0-.83-.34-1.14-1.12-1.14h-5.82c-.79 0-1.23.31-1.23 1.14V60.1c0 .62-.34.93-1.12.93-.45 0-.67-.11-.9-.21-3.35-2.05-7.16-2.98-11.3-2.98-5.93 0-11.08 1.85-15.22 5.76-4.25 3.9-6.38 8.51-6.38 13.94v15.58c0 5.43 2.13 10.04 6.38 13.94 4.25 3.9 9.29 5.86 15.22 5.86 4.93 0 9.4-1.44 13.54-4.42.11-.2.33-.2.67-.2.78 0 1.23.31 1.23 1.13v.92c0 .72.34 1.13 1.23 1.13h3.69c.79-.01 1.13-.42 1.13-1.14m-8.17-17.23c0 3.38-1.23 6.25-3.92 8.71-2.57 2.36-5.71 3.59-9.4 3.59-3.69 0-6.94-1.23-9.51-3.59-2.57-2.46-3.91-5.33-3.91-8.71V77.53c0-3.38 1.34-6.25 3.91-8.61 2.57-2.46 5.82-3.59 9.51-3.59 3.58 0 6.71 1.13 9.4 3.59 2.68 2.36 3.92 5.23 3.92 8.61v15.58z" style="fill-rule:evenodd;clip-rule:evenodd;fill:#ed6c25;stroke:#ed6c27;stroke-width:2;stroke-miterlimit:10"/><path d="M359.77 110.34v-33.7c0-5.2-2.01-9.57-6.04-13.26-4.03-3.7-8.84-5.55-14.54-5.55-6.38 0-12.08 1.65-17.12 4.93-.78.41-.78.92-.33 1.54l3.36 4.28c.33.61.9.71 1.57.31 3.8-2.44 8.05-3.56 12.53-3.56 3.47 0 6.37 1.02 8.73 3.26 2.46 2.24 3.69 4.88 3.69 8.05v1.34c0 .82-.33.92-1.12.51-3.35-2.16-7.16-3.19-11.3-3.19-5.71 0-10.52 1.85-14.55 5.55-3.91 3.7-5.93 8.12-5.93 13.26 0 5.24 2.01 9.66 5.93 13.36 4.03 3.7 8.84 5.55 14.55 5.55 4.02 0 7.6-1.03 10.74-2.88 1.57-.93 2.46-1.44 2.46-1.44.79 0 1.23.41 1.23 1.13v.51c0 .72.45 1.13 1.23 1.13h3.69c.78 0 1.22-.41 1.22-1.13m-8.17-16.23c0 3.19-1.23 5.75-3.69 8.01s-5.26 3.39-8.73 3.39c-3.47 0-6.27-1.13-8.73-3.39-2.46-2.26-3.58-4.83-3.58-8.01 0-3.09 1.12-5.75 3.58-8.01s5.37-3.29 8.73-3.29c3.47 0 6.37 1.13 8.73 3.29 2.46 2.25 3.69 4.92 3.69 8.01" class="st1"/><path d="M258.93 72.56c0-4.31-1.66-8-4.99-10.76-2.99-3.08-6.97-4.31-11.61-4.31-4.32 0-8.31 1.23-11.3 4.31-3.32 2.76-4.96 6.45-4.96 10.76 0 3.99 1.64 7.69 4.96 10.46 2.99 3.07 6.97 4.61 11.3 4.61 4.64 0 8.62-1.55 11.61-4.61 3.34-2.78 4.99-6.47 4.99-10.46" style="fill-rule:evenodd;clip-rule:evenodd;fill:#ed6c25"/><path d="M242.5 93.67c-11.3 0-20.45 8.41-20.45 18.79h40.91c0-10.38-9.16-18.79-20.46-18.79z" class="st0"/></svg>