<svg xmlns="http://www.w3.org/2000/svg" xml:space="preserve" id="Livello_1" x="0" y="0" style="enable-background:new -210.7 255.1 332.5 83.5" version="1.1" viewBox="-210.7 255.1 332.5 83.5"><style>.st0{fill:#2864ae}.st1{fill:#343434}</style><path d="M-34.9 338.7V324h4.5c.9 0 1.6.1 2.2.3.6.2 1.1.5 1.6.9 1 .9 1.6 2.1 1.6 3.4 0 .7-.1 1.4-.4 2s-.6 1.2-1.1 1.6c-.6.5-1.3.9-2.3 1.1l4 5.4h-3.3l-3.9-5.6v5.6h-2.9zm2.7-7.7h1.7c.9 0 1.5-.2 2-.7.4-.4.6-.9.6-1.6 0-.7-.2-1.2-.7-1.6s-1.1-.6-1.9-.6h-1.8l.1 4.5zM-17.7 338.7V324h7.9v2.5H-15v3.6h5v2.5h-5v3.5h5.2v2.5h-7.9v.1zM3.2 333.7v-2.5h9.6v.3c0 1.3-.4 2.5-1.1 3.7-.7 1.2-1.7 2.1-2.9 2.7-1.2.7-2.5 1-3.8 1-1.4 0-2.7-.3-3.9-1-1.2-.7-2.2-1.6-2.9-2.8-.7-1.2-1.1-2.5-1.1-3.8 0-1.6.5-3.1 1.4-4.4.9-1.2 2-2 3.4-2.6 1-.4 2-.6 3-.6s1.9.2 2.8.5c.9.3 1.7.8 2.4 1.5.9.8 1.5 1.7 1.9 2.6H8.8c-.4-.6-1-1.1-1.7-1.5s-1.4-.5-2.2-.5c-1.5 0-2.7.5-3.6 1.5-.4.5-.8 1-1 1.7-.2.7-.4 1.3-.4 1.9 0 1 .3 2 .9 2.9.5.8 1.3 1.4 2.2 1.8.6.3 1.3.4 2.1.4.9 0 1.8-.2 2.5-.7.8-.5 1.4-1.1 1.8-2l-6.2-.1zM20.1 338.7V324h2.7v14.7h-2.7zM29.9 334.5h2.8c0 .6.2 1.1.6 1.4.4.4.8.5 1.4.5s1.1-.2 1.4-.5c.4-.3.6-.8.6-1.3s-.1-.9-.4-1.3c-.3-.3-.8-.6-1.5-.9-1.1-.4-1.8-.7-2.1-.8-.3-.2-.7-.4-1-.7-.8-.8-1.2-1.8-1.2-3 0-1.1.4-2 1.2-2.8.9-.9 1.9-1.3 3.1-1.3.6 0 1.3.1 1.9.4.6.3 1.1.7 1.5 1.2.6.7.9 1.6.9 2.6h-2.8c0-.5-.2-.9-.5-1.2s-.7-.4-1.1-.4c-.5 0-.8.1-1.1.4-.3.3-.4.6-.4 1.1s.2.9.6 1.2c.3.2.9.5 1.9.9 1.1.4 2 .8 2.5 1.4.9.8 1.3 1.9 1.3 3.1 0 1.3-.4 2.4-1.3 3.3-1 1-2.1 1.4-3.4 1.4-.7 0-1.4-.2-2.1-.5-.7-.3-1.2-.8-1.7-1.3-.7-1-1-1.9-1.1-2.9zM48.3 338.7v-12.2h-2.7V324h8.1v2.5H51v12.1h-2.7v.1zM60.7 338.7V324h7.9v2.5h-5.2v3.6h5v2.5h-5v3.5h5.2v2.5h-7.9v.1zM76.2 338.7V324h4.5c.9 0 1.6.1 2.2.3.6.2 1.1.5 1.6.9 1 .9 1.6 2.1 1.6 3.4 0 .7-.1 1.4-.4 2s-.6 1.2-1.1 1.6c-.6.5-1.3.9-2.3 1.1l4 5.4H83l-3.9-5.6v5.6h-2.9zm2.7-7.7h1.7c.9 0 1.5-.2 2-.7.4-.4.6-.9.6-1.6 0-.7-.2-1.2-.7-1.6s-1.1-.6-1.9-.6h-1.8l.1 4.5zM93.3 338.7v-2.6h2.6v2.6h-2.6zM103.9 338.7V324h2.7v14.7h-2.7zM116.2 338.7v-12.2h-2.7V324h8.1v2.5h-2.7v12.1h-2.7v.1z" class="st0"/><path d="M-210.7 294.5h5.7c.3 3 1.2 5.4 2.5 7.1.9 1.2 2.2 2.2 3.7 2.9 1.5.7 3.1 1.1 4.7 1.1 1.4 0 2.8-.3 4.3-.9 1.5-.6 2.7-1.5 3.7-2.5 1.9-2 2.9-4.4 2.9-7.2 0-3.1-1.2-5.7-3.7-7.7-1.7-1.4-4.5-2.6-8.3-3.6-2.8-.7-4.9-1.4-6.3-2-1.4-.7-2.7-1.5-3.8-2.7-2.5-2.5-3.8-5.7-3.8-9.5 0-4 1.4-7.3 4.1-10 2.9-2.9 6.6-4.4 10.9-4.4 4.2 0 7.7 1.4 10.5 4.2s4.3 6.2 4.3 10.3h-5.6c-.2-2.9-1.2-5.2-3-7-1.8-1.8-4-2.7-6.7-2.7-2.5 0-4.6.8-6.3 2.5-2 1.9-2.9 4.2-2.9 6.9s.8 4.7 2.5 6.2c1.4 1.2 4 2.3 7.9 3.4 3.2.9 5.4 1.6 6.5 2.1 1.1.5 2.3 1.2 3.5 2.2 1.7 1.4 3 3.1 3.9 5.2.9 2.1 1.4 4.2 1.4 6.4 0 4.1-1.5 7.7-4.5 10.7-3.2 3.3-7.1 5-11.8 5-2.8 0-5.3-.6-7.7-1.7-2.4-1.1-4.3-2.8-5.8-4.8-1.6-2.7-2.6-5.8-2.8-9.5zM-167.8 269.9h5.1v6.8c1.5-2.1 3.3-3.8 5.5-5 3.2-1.8 6.6-2.7 10.4-2.7 2.6 0 5.2.5 7.7 1.5s4.8 2.4 6.7 4.3c4.3 4.1 6.4 9.1 6.4 15s-2.2 10.9-6.7 15c-4.1 3.8-9 5.6-14.5 5.6-3.2 0-6.1-.7-8.8-2-2.6-1.3-4.8-3.3-6.5-5.8v20.7h-5.4v-53.4h.1zm20.8 3.6c-4.3 0-8.1 1.6-11.2 4.7-3 3.1-4.6 6.8-4.6 11.2 0 5 1.6 9 4.9 12.1 3 2.9 6.7 4.3 10.9 4.3 4.1 0 7.7-1.4 10.8-4.3 3.4-3.2 5-7.1 5-11.7 0-5-1.7-9-5.2-12.2-2.9-2.7-6.5-4.1-10.6-4.1z" class="st1"/><path d="M-35.3 309.4v-53.3h5.4v53.3h-5.4zM-17.3 309.4v-34.9h-8.3v-4.6h8.3v-13.8h5.1v13.8h9.4v4.5h-9.4v34.9h-5.1v.1zM39.8 269.9v39.5h-5.1v-6.9c-3.9 5.3-9 7.9-15.5 7.9-3.9 0-7.6-1-11.1-3-3.3-1.9-5.9-4.6-7.7-8.1-1.6-3.1-2.5-6.3-2.5-9.6 0-2.6.5-5.1 1.5-7.6s2.4-4.7 4.1-6.6c2-2.1 4.4-3.7 7.2-4.9 2.7-1.1 5.5-1.6 8.4-1.6 3.2 0 6.2.7 8.8 2 2.6 1.4 4.9 3.3 6.7 5.9v-7h5.2zm-20.6 3.6c-4.3 0-8.1 1.6-11.4 4.8-3.2 3.2-4.7 6.9-4.7 11.1 0 4.5 1.5 8.3 4.5 11.5 1.5 1.5 3.2 2.7 5.3 3.6s4.2 1.3 6.3 1.3c4.2 0 7.9-1.6 11-4.8 3-3.1 4.5-6.9 4.5-11.3 0-4.5-1.5-8.2-4.5-11.4-3-3.1-6.6-4.7-11-4.8zM49.8 309.4v-53.3h5.1v53.3h-5.1zM64.9 261.2v-5.1H70v5.1h-5.1zm0 48.2v-39.5H70v39.5h-5.1zM121.8 269.9v39.5h-5.1v-6.9c-3.9 5.3-9 7.9-15.5 7.9-3.9 0-7.6-1-11.1-3-3.3-1.9-5.9-4.6-7.7-8.1-1.6-3.1-2.5-6.3-2.5-9.6 0-2.6.5-5.1 1.5-7.6s2.4-4.7 4.1-6.6c2-2.1 4.4-3.7 7.2-4.9 2.7-1.1 5.5-1.6 8.4-1.6 3.2 0 6.2.7 8.8 2 2.6 1.4 4.9 3.3 6.7 5.9v-7h5.2zm-20.6 3.6c-4.3 0-8.1 1.6-11.4 4.8-3.2 3.2-4.7 6.9-4.7 11.1 0 4.5 1.5 8.3 4.5 11.5 1.5 1.5 3.2 2.7 5.3 3.6 2.1.9 4.2 1.3 6.3 1.3 4.2 0 7.9-1.6 11-4.8 3-3.1 4.5-6.9 4.5-11.3 0-4.5-1.5-8.2-4.5-11.4-3-3.1-6.7-4.7-11-4.8zM-116 324h69.8v14.6H-116V324z" class="st0"/><path d="M-55.6 256.1v16.5c-3.3-2.3-7.3-3.6-11.6-3.6-11.4 0-20.7 9.3-20.7 20.7 0 11.4 9.3 20.7 20.7 20.7 4.3 0 8.3-1.3 11.6-3.6v2.6h9.1v-53.3h-9.1zm-11.6 45.1c-6.4 0-11.5-5.2-11.5-11.5 0-6.4 5.2-11.5 11.5-11.5 6.4 0 11.5 5.2 11.5 11.5s-5.2 11.5-11.5 11.5z" class="st1"/><circle cx="-107" cy="264.1" r="9" class="st1"/><path d="M-107 278.2c-5 0-9 4-9 9v22.2h18.1v-22.2c0-5-4.1-9-9.1-9z" class="st1"/></svg>