<svg xmlns="http://www.w3.org/2000/svg" xml:space="preserve" id="Livello_1" x="0" y="0" style="enable-background:new 0 0 608 181.8" version="1.1" viewBox="0 0 608 181.8"><style>.st0{fill:#6dc499}.st1{fill:#fff}.st2{fill:#143257}.st4{fill:#117bb9}</style><circle cx="508.7" cy="90.9" r="76.8" class="st0"/><path d="M462.8 50.2H477v78.2h-14.2V50.2zM562 89.2c0 6.8-1.1 12.7-3.2 17.7s-5.1 9.2-9 12.5-8.5 5.8-14 7.4-11.5 2.4-18.1 2.4c-3.2 0-6.7-.1-10.7-.4-4-.3-7.8-.8-11.4-1.6V51.3c3.6-.8 7.4-1.4 11.5-1.6 4.1-.2 7.7-.3 10.8-.3 6.5 0 12.5.8 17.9 2.3s10.1 3.9 13.9 7.2c3.9 3.3 6.9 7.4 9 12.4 2.3 5 3.3 11 3.3 17.9z" class="st1"/><path d="M79.5 93.2c1.8-5.4-.2-11.5-4.9-14.9-4.7-3.4-11-3.4-15.7 0s-6.6 9.4-4.9 14.9c1.8 5.5 6.9 9.2 12.7 9.2 5.8 0 11-3.7 12.8-9.2" class="st2"/><path d="M88.8 50.9H71.7l-8.6 14.8h17.2l8.6 14.8 8.6-14.9z" style="fill:#71c597"/><path d="m89.1 97.7-8.7 14.9H63.3l8.6 14.7h17.2l8.6-14.8zM30.9 74.3l-8.5 14.9L31 104h17.2l-8.6-14.8 8.5-14.9z" class="st4"/><path d="M119.3 50.9h14v76.6h-14zM190 74.6c-4-3.2-9.9-4.7-17.9-4.7-8.7 0-18.7 1.8-26.8 4.9h-.1v52.7h13.3V83.1c3.6-1 8.1-1.6 12.6-1.6 8.2 0 12.4 3.6 12.4 10.9v35.1h13.1V91.3c0-7.7-2.1-13.1-6.6-16.7M238.2 116.6c-1.9.6-4.1.7-6.5.7-3.6 0-6.1-1-7.6-3-1.5-2.1-2.2-5.4-2.2-10.1V80.3h20.8V69h-20.8V51.3l-13.5 2.2v50.8c0 3.9.4 7.3 1 10.4.7 3 1.8 5.6 3.5 7.8s3.8 3.7 6.6 4.9c2.8 1.1 6.3 1.7 10.5 1.7 3.5 0 6.4-.4 8.9-1 2.5-.7 4.6-1.4 6.2-2.1l-2.2-10.8c-1.3.4-2.8.8-4.7 1.4M265.5 92.9c.2-1.7.7-3.4 1.2-5 .6-1.6 1.4-3.1 2.5-4.3 1.1-1.2 2.4-2.2 3.9-3.1 1.6-.7 3.4-1.1 5.4-1.1 2.1 0 3.7.4 5.1 1 1.4.7 2.7 1.7 3.6 2.9 1 1.2 1.8 2.6 2.2 4.3.6 1.7.7 3.5.7 5.2l-24.6.1zm13-24.6c-3.5 0-6.7.7-10 2s-6.2 3.2-8.7 5.8c-2.5 2.5-4.6 5.7-6.1 9.6s-2.3 8.3-2.3 13.4c0 4.4.6 8.3 1.8 12.1 1.2 3.7 3 6.8 5.4 9.5s5.6 4.8 9.4 6.4c3.8 1.5 8.2 2.2 13.4 2.2 2 0 4-.1 5.9-.4 2-.2 3.7-.5 5.4-.8 1.7-.4 3.2-.7 4.5-1.1s2.3-.7 3.1-1.1l-1.8-10.9c-1.6.7-3.7 1.3-6.5 1.9-2.7.6-5.7.8-9 .8-5.6 0-9.8-1.3-12.7-3.8-2.9-2.5-4.6-6.2-5-10.8h38.4c.1-.7.1-1.6.2-2.5 0-.9.1-1.8.1-2.5 0-9.8-2.2-17.2-6.7-22.2-4.5-5.1-10.7-7.6-18.8-7.6M352.5 100.7c-1.5-1.4-3.3-2.7-5.5-3.9-2.2-1.1-5-2.3-8.1-3.5-2-.7-3.6-1.3-5-2-1.3-.7-2.4-1.2-3.3-1.9s-1.4-1.3-1.7-2.1c-.4-.7-.5-1.6-.5-2.5 0-1.9.8-3.4 2.5-4.3s3.9-1.4 6.7-1.4c3.1 0 5.7.3 8 .8 2.3.6 4.2 1.1 5.7 1.9l2.4-10.8c-1.6-.6-3.9-1.2-7-1.9s-6.4-.9-9.8-.9c-6.7 0-12.2 1.5-16.1 4.6s-5.9 7.3-5.9 12.6c0 2.7.5 5 1.3 6.9s2.1 3.5 3.6 4.9 3.3 2.5 5.3 3.5c2.1 1 4.3 2 6.7 2.8 4 1.5 6.9 2.8 8.6 4.1 1.8 1.2 2.6 2.8 2.6 4.8 0 2.1-.8 3.6-2.4 4.4-1.7.8-4.2 1.3-7.9 1.3-3.6 0-6.7-.4-9.5-1.1s-5.1-1.5-7.2-2.3l-2.3 11.2c1.3.6 3.5 1.2 6.5 2.1 3.1.8 7.3 1.3 12.3 1.3 7.7 0 13.6-1.4 17.7-4.3s6.2-7 6.2-12.5c0-2.6-.4-4.8-1-6.6-.4-2.1-1.4-3.8-2.9-5.2M399.4 117.5c-2.2.5-5.3.7-9.4.7-3.5 0-6.2-.7-8.1-1.8-2.1-1.2-3-3.5-3-6.6 0-1.6.4-3 1.1-4s1.8-1.9 3-2.5 2.6-1 4.1-1.2 3-.3 4.5-.3c1.7 0 3.3.1 4.7.3s2.5.5 3.3.7l-.2 14.7zm11.8-35.7c-.7-2.8-2.1-5.2-3.9-7.3-1.8-2-4.2-3.6-7.3-4.7-3.1-1.1-6.8-1.7-11.2-1.7-3.7 0-7.2.3-10.5.9s-5.8 1.2-7.5 1.8l1.7 10.8c1.7-.6 3.7-1.1 6.4-1.6 2.6-.5 5.4-.7 8.6-.7 2.3 0 4.2.3 5.7.9 1.5.7 2.7 1.4 3.6 2.5s1.6 2.3 2 3.7c.4 1.4.6 2.9.6 4.4V93c-1.9-.5-3.6-.7-5.2-.9-1.7-.2-3.2-.3-4.7-.3-3.2 0-6.3.3-9.2.9-2.9.7-5.5 1.7-7.8 3.1-2.2 1.4-4 3.3-5.3 5.6-1.3 2.2-2 5-2 8.4 0 3.5.6 6.4 1.8 8.8 1.1 2.3 2.7 4.3 4.8 5.8 2.1 1.5 4.5 2.5 7.4 3.2 2.9.7 6.1 1 9.6 1 5.2 0 10-.3 14.2-.9 4.2-.7 7.3-1.1 9.4-1.6V91.3c-.1-3.5-.4-6.6-1.2-9.5" class="st2"/><path d="M526.3 93.4c4.2 0 7.3-1.4 10-4 2.6-2.7 3.9-6.1 3.9-10.2s-1.3-7.5-3.9-10.3c-2.5-2.7-5.8-4.2-10-4.2s-7.5 1.3-10.1 4c-2.7 2.7-4 6.1-4 10.2s1.4 7.6 4 10.3c2.5 2.8 5.9 4.2 10.1 4.2zM526.3 99.3c-4.2 0-7.5 1.3-10.1 4-2.7 2.7-4 6-4 10.2l27.9.3c0-4.1-1.3-7.5-3.9-10.3-2.4-2.8-5.8-4.2-9.9-4.2z" class="st0"/></svg>