<?xml version="1.0" encoding="UTF-8" standalone="no"?>
<!-- Created with Inkscape (http://www.inkscape.org/) -->

<svg
   width="800"
   height="300"
   viewBox="0 0 211.66666 79.375"
   version="1.1"
   id="svg28"
   xmlns="http://www.w3.org/2000/svg"
   xmlns:svg="http://www.w3.org/2000/svg">
  <defs
     id="defs25">
    <marker
       style="overflow:visible"
       id="marker20318"
       refX="0"
       refY="0"
       orient="auto-start-reverse"
       markerWidth="5.3244081"
       markerHeight="6.155385"
       viewBox="0 0 5.3244081 6.1553851"
       preserveAspectRatio="xMidYMid">
      <path
         transform="scale(0.5)"
         style="fill:context-stroke;fill-rule:evenodd;stroke:context-stroke;stroke-width:1pt"
         d="M 5.77,0 -2.88,5 V -5 Z"
         id="path20316" />
    </marker>
    <marker
       style="overflow:visible"
       id="TriangleStart"
       refX="0"
       refY="0"
       orient="auto-start-reverse"
       markerWidth="5.3244081"
       markerHeight="6.155385"
       viewBox="0 0 5.3244081 6.1553851"
       preserveAspectRatio="xMidYMid">
      <path
         transform="scale(0.5)"
         style="fill:context-stroke;fill-rule:evenodd;stroke:context-stroke;stroke-width:1pt"
         d="M 5.77,0 -2.88,5 V -5 Z"
         id="path135" />
    </marker>
    <marker
       style="overflow:visible"
       id="TriangleStart-0"
       refX="0"
       refY="0"
       orient="auto-start-reverse"
       markerWidth="5.3244081"
       markerHeight="6.155385"
       viewBox="0 0 5.3244081 6.1553851"
       preserveAspectRatio="xMidYMid">
      <path
         transform="scale(0.5)"
         style="fill:context-stroke;fill-rule:evenodd;stroke:context-stroke;stroke-width:1pt"
         d="M 5.77,0 -2.88,5 V -5 Z"
         id="path135-3" />
    </marker>
    <marker
       style="overflow:visible"
       id="marker20318-6"
       refX="0"
       refY="0"
       orient="auto-start-reverse"
       markerWidth="5.3244081"
       markerHeight="6.155385"
       viewBox="0 0 5.3244081 6.1553851"
       preserveAspectRatio="xMidYMid">
      <path
         transform="scale(0.5)"
         style="fill:context-stroke;fill-rule:evenodd;stroke:context-stroke;stroke-width:1pt"
         d="M 5.77,0 -2.88,5 V -5 Z"
         id="path20316-1" />
    </marker>
    <marker
       style="overflow:visible"
       id="TriangleStart-6"
       refX="0"
       refY="0"
       orient="auto-start-reverse"
       markerWidth="5.3244081"
       markerHeight="6.155385"
       viewBox="0 0 5.3244081 6.1553851"
       preserveAspectRatio="xMidYMid">
      <path
         transform="scale(0.5)"
         style="fill:context-stroke;fill-rule:evenodd;stroke:context-stroke;stroke-width:1pt"
         d="M 5.77,0 -2.88,5 V -5 Z"
         id="path135-32" />
    </marker>
    <marker
       style="overflow:visible"
       id="marker20318-0"
       refX="0"
       refY="0"
       orient="auto-start-reverse"
       markerWidth="5.3244081"
       markerHeight="6.155385"
       viewBox="0 0 5.3244081 6.1553851"
       preserveAspectRatio="xMidYMid">
      <path
         transform="scale(0.5)"
         style="fill:context-stroke;fill-rule:evenodd;stroke:context-stroke;stroke-width:1pt"
         d="M 5.77,0 -2.88,5 V -5 Z"
         id="path20316-6" />
    </marker>
    <marker
       style="overflow:visible"
       id="TriangleStart-6-5"
       refX="0"
       refY="0"
       orient="auto-start-reverse"
       markerWidth="5.3244081"
       markerHeight="6.155385"
       viewBox="0 0 5.3244081 6.1553851"
       preserveAspectRatio="xMidYMid">
      <path
         transform="scale(0.5)"
         style="fill:context-stroke;fill-rule:evenodd;stroke:context-stroke;stroke-width:1pt"
         d="M 5.77,0 -2.88,5 V -5 Z"
         id="path135-32-5" />
    </marker>
    <marker
       style="overflow:visible"
       id="marker20318-0-4"
       refX="0"
       refY="0"
       orient="auto-start-reverse"
       markerWidth="5.3244081"
       markerHeight="6.155385"
       viewBox="0 0 5.3244081 6.1553851"
       preserveAspectRatio="xMidYMid">
      <path
         transform="scale(0.5)"
         style="fill:context-stroke;fill-rule:evenodd;stroke:context-stroke;stroke-width:1pt"
         d="M 5.77,0 -2.88,5 V -5 Z"
         id="path20316-6-7" />
    </marker>
    <marker
       style="overflow:visible"
       id="TriangleStart-0-5"
       refX="0"
       refY="0"
       orient="auto-start-reverse"
       markerWidth="5.3244081"
       markerHeight="6.155385"
       viewBox="0 0 5.3244081 6.1553851"
       preserveAspectRatio="xMidYMid">
      <path
         transform="scale(0.5)"
         style="fill:context-stroke;fill-rule:evenodd;stroke:context-stroke;stroke-width:1pt"
         d="M 5.77,0 -2.88,5 V -5 Z"
         id="path135-3-6" />
    </marker>
    <marker
       style="overflow:visible"
       id="marker20318-6-9"
       refX="0"
       refY="0"
       orient="auto-start-reverse"
       markerWidth="5.3244081"
       markerHeight="6.155385"
       viewBox="0 0 5.3244081 6.1553851"
       preserveAspectRatio="xMidYMid">
      <path
         transform="scale(0.5)"
         style="fill:context-stroke;fill-rule:evenodd;stroke:context-stroke;stroke-width:1pt"
         d="M 5.77,0 -2.88,5 V -5 Z"
         id="path20316-1-3" />
    </marker>
    <marker
       style="overflow:visible"
       id="TriangleStart-6-7"
       refX="0"
       refY="0"
       orient="auto-start-reverse"
       markerWidth="5.3244081"
       markerHeight="6.155385"
       viewBox="0 0 5.3244081 6.1553851"
       preserveAspectRatio="xMidYMid">
      <path
         transform="scale(0.5)"
         style="fill:context-stroke;fill-rule:evenodd;stroke:context-stroke;stroke-width:1pt"
         d="M 5.77,0 -2.88,5 V -5 Z"
         id="path135-32-4" />
    </marker>
    <marker
       style="overflow:visible"
       id="marker20318-0-5"
       refX="0"
       refY="0"
       orient="auto-start-reverse"
       markerWidth="5.3244081"
       markerHeight="6.155385"
       viewBox="0 0 5.3244081 6.1553851"
       preserveAspectRatio="xMidYMid">
      <path
         transform="scale(0.5)"
         style="fill:context-stroke;fill-rule:evenodd;stroke:context-stroke;stroke-width:1pt"
         d="M 5.77,0 -2.88,5 V -5 Z"
         id="path20316-6-2" />
    </marker>
    <marker
       style="overflow:visible"
       id="TriangleStart-6-5-5"
       refX="0"
       refY="0"
       orient="auto-start-reverse"
       markerWidth="5.3244081"
       markerHeight="6.155385"
       viewBox="0 0 5.3244081 6.1553851"
       preserveAspectRatio="xMidYMid">
      <path
         transform="scale(0.5)"
         style="fill:context-stroke;fill-rule:evenodd;stroke:context-stroke;stroke-width:1pt"
         d="M 5.77,0 -2.88,5 V -5 Z"
         id="path135-32-5-4" />
    </marker>
    <marker
       style="overflow:visible"
       id="marker20318-0-4-7"
       refX="0"
       refY="0"
       orient="auto-start-reverse"
       markerWidth="5.3244081"
       markerHeight="6.155385"
       viewBox="0 0 5.3244081 6.1553851"
       preserveAspectRatio="xMidYMid">
      <path
         transform="scale(0.5)"
         style="fill:context-stroke;fill-rule:evenodd;stroke:context-stroke;stroke-width:1pt"
         d="M 5.77,0 -2.88,5 V -5 Z"
         id="path20316-6-7-4" />
    </marker>
  </defs>
  <g
     id="layer1">
    <path
       d="m 121.99583,29.152929 c -2.52873,0 -4.58468,2.055942 -4.58468,4.58468 v 4.584679 c 0,2.528738 2.05595,4.58468 4.58468,4.58468 h 27.50808 c 2.52874,0 4.58467,-2.055942 4.58467,-4.58468 v -4.584679 c 0,-2.528738 -2.05593,-4.58468 -4.58467,-4.58468 z m 20.05798,8.596275 c -0.95276,0 -1.71926,-0.766501 -1.71926,-1.719256 0,-0.952753 0.7665,-1.719255 1.71926,-1.719255 0.95275,0 1.71925,0.766502 1.71925,1.719255 0,0.952755 -0.7665,1.719256 -1.71925,1.719256 z m 6.87701,-1.719256 c 0,0.952755 -0.7665,1.719256 -1.71925,1.719256 -0.95275,0 -1.71926,-0.766501 -1.71926,-1.719256 0,-0.952753 0.76651,-1.719255 1.71926,-1.719255 0.95275,0 1.71925,0.766502 1.71925,1.719255 z m -26.93499,11.4617 c -2.52873,0 -4.58468,2.055943 -4.58468,4.584682 v 4.584674 c 0,2.52874 2.05595,4.584684 4.58468,4.584684 h 27.50808 c 2.52874,0 4.58467,-2.055944 4.58467,-4.584684 V 52.07633 c 0,-2.528739 -2.05593,-4.584682 -4.58467,-4.584682 z m 20.05798,8.596279 c -0.95276,0 -1.71926,-0.766506 -1.71926,-1.71926 0,-0.952753 0.7665,-1.71925 1.71926,-1.71925 0.95275,0 1.71925,0.766497 1.71925,1.71925 0,0.952754 -0.7665,1.71926 -1.71925,1.71926 z m 7.4501,-1.71926 c 0,0.952754 -0.7665,1.71926 -1.71926,1.71926 -0.95275,0 -1.71925,-0.766506 -1.71925,-1.71926 0,-0.952753 0.7665,-1.71925 1.71925,-1.71925 0.95276,0 1.71926,0.766497 1.71926,1.71925 z"
       id="path8105-8"
       style="stroke-width:0.0716355" />
    <path
       id="path138"
       style="fill:#62caca;stroke-width:0.264611;fill-opacity:1"
       d="M 0.049092611 0 L 0.049092611 79.375 L 15.011487 79.375 A 5.4907393 15.02551 0 0 0 16.373678 75.926115 A 6.3363056 6.7838235 0 0 0 20.95376 69.411267 A 6.3363056 6.7838235 0 0 0 20.650936 67.341109 A 13.552896 10.768336 0 0 0 22.842533 64.45343 A 5.9642353 9.2009888 0 0 0 27.691333 55.41884 A 5.9642353 9.2009888 0 0 0 27.564726 53.534717 A 4.6175475 10.191626 0 0 0 30.132528 44.402974 A 4.6175475 10.191626 0 0 0 29.207003 38.282935 A 24.807627 14.981925 0 0 0 32.566488 30.774349 A 24.807627 14.981925 0 0 0 28.09906 22.199162 A 7.2395468 8.4743358 0 0 0 28.489734 19.471163 A 7.2395468 8.4743358 0 0 0 24.725623 12.038542 A 15.853206 15.742543 0 0 0 24.739575 11.663371 A 15.853206 15.742543 0 0 0 19.497001 0 L 0.049092611 0 z " />
    <text
       xml:space="preserve"
       style="font-style:normal;font-variant:normal;font-weight:bold;font-stretch:normal;font-size:4.58611px;font-family:sans-serif;-inkscape-font-specification:'sans-serif, Bold';font-variant-ligatures:normal;font-variant-caps:normal;font-variant-numeric:normal;font-variant-east-asian:normal;fill:#000000;fill-opacity:1;stroke-width:0.264583"
       x="0.93844414"
       y="5.1035638"
       id="text4794"><tspan
         id="tspan4792"
         style="font-style:normal;font-variant:normal;font-weight:bold;font-stretch:normal;font-size:4.58611px;font-family:sans-serif;-inkscape-font-specification:'sans-serif, Bold';font-variant-ligatures:normal;font-variant-caps:normal;font-variant-numeric:normal;font-variant-east-asian:normal;fill:#000000;fill-opacity:1;stroke-width:0.264583"
         x="0.93844414"
         y="5.1035638">Internet</tspan></text>
    <path
       id="path5316"
       style="fill:#cecece;fill-opacity:1;stroke-width:0.264583"
       d="M 68.379289 0 A 24.741014 49.194454 0 0 0 56.176416 42.391211 A 24.741014 49.194454 0 0 0 64.62913 79.375 L 97.210087 79.375 L 205.68357 79.375 L 211.57055 79.375 L 211.57055 0 L 125.3293 0 L 93.468197 0 L 68.379289 0 z " />
    <text
       xml:space="preserve"
       style="font-style:normal;font-variant:normal;font-weight:bold;font-stretch:normal;font-size:4.58611px;font-family:sans-serif;-inkscape-font-specification:'sans-serif, Bold';font-variant-ligatures:normal;font-variant-caps:normal;font-variant-numeric:normal;font-variant-east-asian:normal;fill:#000000;fill-opacity:1;stroke-width:0.264583"
       x="70.401825"
       y="5.1034827"
       id="text4794-8"><tspan
         id="tspan4792-7"
         style="font-style:normal;font-variant:normal;font-weight:bold;font-stretch:normal;font-size:4.58611px;font-family:sans-serif;-inkscape-font-specification:'sans-serif, Bold';font-variant-ligatures:normal;font-variant-caps:normal;font-variant-numeric:normal;font-variant-east-asian:normal;fill:#000000;fill-opacity:1;stroke-width:0.264583"
         x="70.401825"
         y="5.1034827">Docker</tspan></text>
    <text
       xml:space="preserve"
       style="font-style:normal;font-variant:normal;font-weight:bold;font-stretch:normal;font-size:4.58611px;font-family:sans-serif;-inkscape-font-specification:'sans-serif, Bold';font-variant-ligatures:normal;font-variant-caps:normal;font-variant-numeric:normal;font-variant-east-asian:normal;fill:#000000;fill-opacity:1;stroke-width:0.264583"
       x="34.326866"
       y="38.232296"
       id="text4794-8-7"><tspan
         id="tspan4792-7-8"
         style="font-style:normal;font-variant:normal;font-weight:bold;font-stretch:normal;font-size:4.58611px;font-family:sans-serif;-inkscape-font-specification:'sans-serif, Bold';font-variant-ligatures:normal;font-variant-caps:normal;font-variant-numeric:normal;font-variant-east-asian:normal;fill:#000000;fill-opacity:1;stroke-width:0.264583"
         x="34.326866"
         y="38.232296">80 - 443</tspan></text>
    <text
       xml:space="preserve"
       style="font-style:normal;font-variant:normal;font-weight:bold;font-stretch:normal;font-size:4.58611px;font-family:sans-serif;-inkscape-font-specification:'sans-serif, Bold';font-variant-ligatures:normal;font-variant-caps:normal;font-variant-numeric:normal;font-variant-east-asian:normal;fill:#000000;fill-opacity:1;stroke-width:0.264583"
       x="77.416344"
       y="29.870062"
       id="text4794-8-2"><tspan
         id="tspan4792-7-2"
         style="font-style:normal;font-variant:normal;font-weight:bold;font-stretch:normal;font-size:4.58611px;font-family:sans-serif;-inkscape-font-specification:'sans-serif, Bold';font-variant-ligatures:normal;font-variant-caps:normal;font-variant-numeric:normal;font-variant-east-asian:normal;fill:#000000;fill-opacity:1;stroke-width:0.264583"
         x="77.416344"
         y="29.870062">NGINX</tspan></text>
    <text
       xml:space="preserve"
       style="font-style:normal;font-variant:normal;font-weight:bold;font-stretch:normal;font-size:4.58611px;font-family:sans-serif;-inkscape-font-specification:'sans-serif, Bold';font-variant-ligatures:normal;font-variant-caps:normal;font-variant-numeric:normal;font-variant-east-asian:normal;fill:#000000;fill-opacity:1;stroke-width:0.264583"
       x="182.73923"
       y="20.922777"
       id="text4794-8-2-8"><tspan
         id="tspan4792-7-2-4"
         style="font-style:normal;font-variant:normal;font-weight:bold;font-stretch:normal;font-size:4.58611px;font-family:sans-serif;-inkscape-font-specification:'sans-serif, Bold';font-variant-ligatures:normal;font-variant-caps:normal;font-variant-numeric:normal;font-variant-east-asian:normal;fill:#000000;fill-opacity:1;stroke-width:0.264583"
         x="182.73923"
         y="20.922777">Mongo DB</tspan></text>
    <text
       xml:space="preserve"
       style="font-style:normal;font-variant:normal;font-weight:bold;font-stretch:normal;font-size:4.58611px;font-family:sans-serif;-inkscape-font-specification:'sans-serif, Bold';font-variant-ligatures:normal;font-variant-caps:normal;font-variant-numeric:normal;font-variant-east-asian:normal;fill:#000000;fill-opacity:1;stroke-width:0.264583"
       x="121.08095"
       y="12.521271"
       id="text4794-8-2-1"><tspan
         id="tspan4792-7-2-9"
         style="font-style:normal;font-variant:normal;font-weight:bold;font-stretch:normal;font-size:4.58611px;font-family:sans-serif;-inkscape-font-specification:'sans-serif, Bold';font-variant-ligatures:normal;font-variant-caps:normal;font-variant-numeric:normal;font-variant-east-asian:normal;fill:#000000;fill-opacity:1;stroke-width:0.264583"
         x="121.08095"
         y="12.521271">Satosa-SAML2Spid</tspan></text>
    <path
       d="m 209.1555,28.777946 v 3.157773 c 0,2.907783 -6.59843,5.262955 -14.73627,5.262955 -8.13785,0 -14.73628,-2.355172 -14.73628,-5.262955 v -3.157773 c 0,-2.907782 6.59843,-5.262954 14.73628,-5.262954 8.13784,0 14.73627,2.355172 14.73627,5.262954 z m -3.60512,8.8615 c 1.36837,-0.486823 2.6249,-1.111799 3.60512,-1.881506 v 6.703689 c 0,2.907782 -6.59843,5.262954 -14.73627,5.262954 -8.13785,0 -14.73628,-2.355172 -14.73628,-5.262954 V 35.75794 c 0.98023,0.776286 2.23676,1.394683 3.60513,1.881506 2.95383,1.052591 6.88789,1.66441 11.13115,1.66441 4.24325,0 8.17731,-0.611819 11.13115,-1.66441 z m -25.86743,8.644404 c 0.98023,0.776285 2.23676,1.394683 3.60513,1.881506 2.95383,1.052591 6.88789,1.664409 11.13115,1.664409 4.24325,0 8.17731,-0.611818 11.13115,-1.664409 1.36837,-0.486823 2.6249,-1.111799 3.60512,-1.881506 v 5.651097 c 0,2.907783 -6.59843,5.262955 -14.73627,5.262955 -8.13785,0 -14.73628,-2.355172 -14.73628,-5.262955 z"
       id="path8097"
       style="stroke-width:0.0657869" />
    <path
       d="m 14.369843,35.390838 v 7.254554 H 4.006194 V 35.390838 Z M 4.006194,33.318108 c -1.1432398,0 -2.0727297,0.929491 -2.0727297,2.07273 v 7.254554 c 0,1.143239 0.9294899,2.07273 2.0727297,2.07273 H 7.8051187 L 7.4585842,45.754486 H 5.042559 c -0.5732393,0 -1.036365,0.463127 -1.036365,1.036365 0,0.573239 0.4631257,1.036365 1.036365,1.036365 h 8.290918 c 0.57324,0 1.036366,-0.463126 1.036366,-1.036365 0,-0.573238 -0.463126,-1.036365 -1.036366,-1.036365 h -2.419263 l -0.346535,-1.036364 h 3.802164 c 1.143239,0 2.072729,-0.929491 2.072729,-2.07273 v -7.254554 c 0,-1.143239 -0.92949,-2.07273 -2.072729,-2.07273 z m 15.027289,0 c -0.858239,0 -1.554546,0.696308 -1.554546,1.554548 v 11.400013 c 0,0.85824 0.696307,1.554547 1.554546,1.554547 h 2.07273 c 0.858242,0 1.554549,-0.696307 1.554549,-1.554547 V 34.872656 c 0,-0.85824 -0.696307,-1.554548 -1.554549,-1.554548 z m 0.518185,2.07273 h 1.036364 c 0.285,0 0.518181,0.233181 0.518181,0.518182 0,0.285 -0.233181,0.518183 -0.518181,0.518183 h -1.036364 c -0.285002,0 -0.518185,-0.233183 -0.518185,-0.518183 0,-0.285001 0.233183,-0.518182 0.518185,-0.518182 z m -0.518185,2.590912 c 0,-0.285001 0.233183,-0.518182 0.518185,-0.518182 h 1.036364 c 0.285,0 0.518181,0.233181 0.518181,0.518182 0,0.285 -0.233181,0.518183 -0.518181,0.518183 h -1.036364 c -0.285002,0 -0.518185,-0.233183 -0.518185,-0.518183 z m 1.036367,7.254554 c -0.57324,0 -1.036367,-0.463126 -1.036367,-1.036365 0,-0.573238 0.463127,-1.036365 1.036367,-1.036365 0.573239,0 1.036363,0.463127 1.036363,1.036365 0,0.573239 -0.463124,1.036365 -1.036363,1.036365 z"
       id="path8113"
       style="stroke-width:0.0323863" />
    <path
       d="M 8.5471247,11.255565 V 14.22535 H 4.3045745 v -2.969785 z m -4.2425502,-0.84851 c -0.4680063,0 -0.8485101,0.380504 -0.8485101,0.84851 v 2.969785 c 0,0.468006 0.3805038,0.84851 0.8485101,0.84851 H 5.8597343 L 5.7178738,15.498115 H 4.7288296 c -0.2346659,0 -0.4242551,0.189589 -0.4242551,0.424255 0,0.234666 0.1895892,0.424255 0.4242551,0.424255 h 3.3940397 c 0.2346663,0 0.4242554,-0.189589 0.4242554,-0.424255 0,-0.234666 -0.1895891,-0.424255 -0.4242554,-0.424255 H 7.1324995 L 6.990639,15.07386 h 1.5564857 c 0.4680059,0 0.8485098,-0.380504 0.8485098,-0.84851 v -2.969785 c 0,-0.468006 -0.3805039,-0.84851 -0.8485098,-0.84851 z m 6.1516975,0 c -0.351336,0 -0.6363825,0.285047 -0.6363825,0.636383 v 4.666805 c 0,0.351336 0.2850465,0.636382 0.6363825,0.636382 h 0.84851 c 0.351337,0 0.636383,-0.285046 0.636383,-0.636382 v -4.666805 c 0,-0.351336 -0.285046,-0.636383 -0.636383,-0.636383 z m 0.212128,0.84851 h 0.424255 c 0.11667,0 0.212127,0.09546 0.212127,0.212127 0,0.11667 -0.09546,0.212128 -0.212127,0.212128 H 10.6684 c -0.116671,0 -0.212128,-0.09546 -0.212128,-0.212128 0,-0.11667 0.09546,-0.212127 0.212128,-0.212127 z m -0.212128,1.060638 c 0,-0.116671 0.09546,-0.212128 0.212128,-0.212128 h 0.424255 c 0.11667,0 0.212127,0.09546 0.212127,0.212128 0,0.11667 -0.09546,0.212127 -0.212127,0.212127 H 10.6684 c -0.116671,0 -0.212128,-0.09546 -0.212128,-0.212127 z m 0.424256,2.969785 c -0.234667,0 -0.424256,-0.18959 -0.424256,-0.424255 0,-0.234666 0.189589,-0.424256 0.424256,-0.424256 0.234666,0 0.424254,0.18959 0.424254,0.424256 0,0.234665 -0.189588,0.424255 -0.424254,0.424255 z"
       id="path8113-9"
       style="stroke-width:0.0132579" />
    <path
       d="m 20.258959,15.831929 v 2.969785 h -4.24255 v -2.969785 z m -4.24255,-0.84851 c -0.468006,0 -0.84851,0.380504 -0.84851,0.84851 v 2.969785 c 0,0.468006 0.380504,0.84851 0.84851,0.84851 h 1.55516 l -0.14186,0.424255 h -0.989045 c -0.234666,0 -0.424255,0.189589 -0.424255,0.424255 0,0.234666 0.189589,0.424255 0.424255,0.424255 h 3.39404 c 0.234666,0 0.424255,-0.189589 0.424255,-0.424255 0,-0.234666 -0.189589,-0.424255 -0.424255,-0.424255 h -0.99037 l -0.14186,-0.424255 h 1.556485 c 0.468006,0 0.84851,-0.380504 0.84851,-0.84851 v -2.969785 c 0,-0.468006 -0.380504,-0.84851 -0.84851,-0.84851 z m 6.151698,0 c -0.351336,0 -0.636383,0.285047 -0.636383,0.636383 v 4.666805 c 0,0.351336 0.285047,0.636382 0.636383,0.636382 h 0.84851 c 0.351337,0 0.636383,-0.285046 0.636383,-0.636382 v -4.666805 c 0,-0.351336 -0.285046,-0.636383 -0.636383,-0.636383 z m 0.212128,0.84851 h 0.424255 c 0.11667,0 0.212127,0.09546 0.212127,0.212127 0,0.11667 -0.09546,0.212128 -0.212127,0.212128 h -0.424255 c -0.116671,0 -0.212128,-0.09546 -0.212128,-0.212128 0,-0.11667 0.09546,-0.212127 0.212128,-0.212127 z m -0.212128,1.060638 c 0,-0.116671 0.09546,-0.212128 0.212128,-0.212128 h 0.424255 c 0.11667,0 0.212127,0.09546 0.212127,0.212128 0,0.11667 -0.09546,0.212127 -0.212127,0.212127 h -0.424255 c -0.116671,0 -0.212128,-0.09546 -0.212128,-0.212127 z m 0.424256,2.969785 c -0.234667,0 -0.424256,-0.18959 -0.424256,-0.424255 0,-0.234666 0.189589,-0.424256 0.424256,-0.424256 0.234666,0 0.424254,0.18959 0.424254,0.424256 0,0.234665 -0.189588,0.424255 -0.424254,0.424255 z"
       id="path8113-9-0"
       style="stroke-width:0.0132579" />
    <path
       d="m 11.410982,23.59684 v 2.969785 H 7.1684316 V 23.59684 Z M 7.1684316,22.74833 c -0.468007,0 -0.848511,0.380504 -0.848511,0.84851 v 2.969785 c 0,0.468006 0.380504,0.84851 0.848511,0.84851 h 1.555159 l -0.14186,0.424255 h -0.989044 c -0.234666,0 -0.424255,0.189589 -0.424255,0.424255 0,0.234666 0.189589,0.424255 0.424255,0.424255 h 3.3940394 c 0.234667,0 0.424256,-0.189589 0.424256,-0.424255 0,-0.234666 -0.189589,-0.424255 -0.424256,-0.424255 H 9.9963556 l -0.14186,-0.424255 h 1.5564864 c 0.468006,0 0.84851,-0.380504 0.84851,-0.84851 V 23.59684 c 0,-0.468006 -0.380504,-0.84851 -0.84851,-0.84851 z m 6.1516974,0 c -0.351336,0 -0.636383,0.285047 -0.636383,0.636383 v 4.666805 c 0,0.351336 0.285047,0.636382 0.636383,0.636382 h 0.84851 c 0.351337,0 0.636383,-0.285046 0.636383,-0.636382 v -4.666805 c 0,-0.351336 -0.285046,-0.636383 -0.636383,-0.636383 z m 0.212128,0.84851 h 0.424255 c 0.11667,0 0.212127,0.09546 0.212127,0.212127 0,0.11667 -0.09546,0.212128 -0.212127,0.212128 h -0.424255 c -0.116671,0 -0.212128,-0.09546 -0.212128,-0.212128 0,-0.11667 0.09546,-0.212127 0.212128,-0.212127 z m -0.212128,1.060638 c 0,-0.116671 0.09546,-0.212128 0.212128,-0.212128 h 0.424255 c 0.11667,0 0.212127,0.09546 0.212127,0.212128 0,0.11667 -0.09546,0.212127 -0.212127,0.212127 h -0.424255 c -0.116671,0 -0.212128,-0.09546 -0.212128,-0.212127 z m 0.424256,2.969785 c -0.234667,0 -0.424256,-0.18959 -0.424256,-0.424255 0,-0.234666 0.189589,-0.424256 0.424256,-0.424256 0.234666,0 0.424254,0.18959 0.424254,0.424256 0,0.234665 -0.189588,0.424255 -0.424254,0.424255 z"
       id="path8113-9-2"
       style="stroke-width:0.0132579" />
    <path
       d="m 11.647764,68.351957 v 2.969785 H 7.4052144 v -2.969785 z m -4.2425496,-0.84851 c -0.468006,0 -0.84851,0.380504 -0.84851,0.84851 v 2.969785 c 0,0.468006 0.380504,0.84851 0.84851,0.84851 h 1.55516 l -0.14186,0.424255 h -0.989045 c -0.234665,0 -0.424255,0.189589 -0.424255,0.424255 0,0.234666 0.18959,0.424255 0.424255,0.424255 h 3.3940396 c 0.234666,0 0.424255,-0.189589 0.424255,-0.424255 0,-0.234666 -0.189589,-0.424255 -0.424255,-0.424255 h -0.99037 l -0.14186,-0.424255 h 1.556485 c 0.468006,0 0.84851,-0.380504 0.84851,-0.84851 v -2.969785 c 0,-0.468006 -0.380504,-0.84851 -0.84851,-0.84851 z m 6.1516976,0 c -0.351336,0 -0.636383,0.285047 -0.636383,0.636383 v 4.666805 c 0,0.351336 0.285047,0.636382 0.636383,0.636382 h 0.84851 c 0.351337,0 0.636383,-0.285046 0.636383,-0.636382 V 68.13983 c 0,-0.351336 -0.285046,-0.636383 -0.636383,-0.636383 z m 0.212128,0.84851 h 0.424255 c 0.11667,0 0.212127,0.09546 0.212127,0.212127 0,0.11667 -0.09546,0.212128 -0.212127,0.212128 H 13.76904 c -0.116671,0 -0.212128,-0.09546 -0.212128,-0.212128 0,-0.11667 0.09546,-0.212127 0.212128,-0.212127 z m -0.212128,1.060638 c 0,-0.116671 0.09546,-0.212128 0.212128,-0.212128 h 0.424255 c 0.11667,0 0.212127,0.09546 0.212127,0.212128 0,0.11667 -0.09546,0.212127 -0.212127,0.212127 H 13.76904 c -0.116671,0 -0.212128,-0.09546 -0.212128,-0.212127 z m 0.424256,2.969785 c -0.234667,0 -0.424256,-0.18959 -0.424256,-0.424255 0,-0.234666 0.189589,-0.424256 0.424256,-0.424256 0.234666,0 0.424254,0.18959 0.424254,0.424256 0,0.234665 -0.189588,0.424255 -0.424254,0.424255 z"
       id="path8113-9-3"
       style="stroke-width:0.0132579" />
    <path
       d="m 18.752019,54.222379 v 2.969785 h -4.24255 v -2.969785 z m -4.24255,-0.84851 c -0.468007,0 -0.848511,0.380504 -0.848511,0.84851 v 2.969785 c 0,0.468006 0.380504,0.84851 0.848511,0.84851 h 1.555159 l -0.14186,0.424255 h -0.989044 c -0.234666,0 -0.424255,0.189589 -0.424255,0.424255 0,0.234666 0.189589,0.424255 0.424255,0.424255 h 3.394039 c 0.234667,0 0.424256,-0.189589 0.424256,-0.424255 0,-0.234666 -0.189589,-0.424255 -0.424256,-0.424255 h -0.99037 l -0.14186,-0.424255 h 1.556486 c 0.468006,0 0.84851,-0.380504 0.84851,-0.84851 v -2.969785 c 0,-0.468006 -0.380504,-0.84851 -0.84851,-0.84851 z m 6.151697,0 c -0.351336,0 -0.636383,0.285047 -0.636383,0.636383 v 4.666805 c 0,0.351336 0.285047,0.636382 0.636383,0.636382 h 0.84851 c 0.351337,0 0.636383,-0.285046 0.636383,-0.636382 v -4.666805 c 0,-0.351336 -0.285046,-0.636383 -0.636383,-0.636383 z m 0.212128,0.84851 h 0.424255 c 0.11667,0 0.212127,0.09546 0.212127,0.212127 0,0.11667 -0.09546,0.212128 -0.212127,0.212128 h -0.424255 c -0.116671,0 -0.212128,-0.09546 -0.212128,-0.212128 0,-0.11667 0.09546,-0.212127 0.212128,-0.212127 z m -0.212128,1.060638 c 0,-0.116671 0.09546,-0.212128 0.212128,-0.212128 h 0.424255 c 0.11667,0 0.212127,0.09546 0.212127,0.212128 0,0.11667 -0.09546,0.212127 -0.212127,0.212127 h -0.424255 c -0.116671,0 -0.212128,-0.09546 -0.212128,-0.212127 z m 0.424256,2.969785 c -0.234667,0 -0.424256,-0.18959 -0.424256,-0.424255 0,-0.234666 0.189589,-0.424256 0.424256,-0.424256 0.234666,0 0.424254,0.18959 0.424254,0.424256 0,0.234665 -0.189588,0.424255 -0.424254,0.424255 z"
       id="path8113-9-7"
       style="stroke-width:0.0132579" />
    <path
       d="m 7.2592202,57.614822 v 2.969785 H 3.01667 V 57.614822 Z M 3.01667,56.766312 c -0.4680063,0 -0.8485101,0.380504 -0.8485101,0.84851 v 2.969785 c 0,0.468006 0.3805038,0.84851 0.8485101,0.84851 H 4.5718298 L 4.4299693,61.857372 H 3.4409251 c -0.2346659,0 -0.4242551,0.189589 -0.4242551,0.424255 0,0.234666 0.1895892,0.424255 0.4242551,0.424255 h 3.3940397 c 0.2346663,0 0.4242554,-0.189589 0.4242554,-0.424255 0,-0.234666 -0.1895891,-0.424255 -0.4242554,-0.424255 H 5.844595 L 5.7027345,61.433117 h 1.5564857 c 0.4680059,0 0.8485098,-0.380504 0.8485098,-0.84851 v -2.969785 c 0,-0.468006 -0.3805039,-0.84851 -0.8485098,-0.84851 z m 6.1516975,0 c -0.351336,0 -0.6363825,0.285047 -0.6363825,0.636383 V 62.0695 c 0,0.351336 0.2850465,0.636382 0.6363825,0.636382 h 0.8485095 c 0.351337,0 0.636383,-0.285046 0.636383,-0.636382 v -4.666805 c 0,-0.351336 -0.285046,-0.636383 -0.636383,-0.636383 z m 0.212128,0.84851 h 0.424255 c 0.11667,0 0.2121265,0.09546 0.2121265,0.212127 0,0.11667 -0.095459,0.212128 -0.2121265,0.212128 h -0.424255 c -0.116671,0 -0.212128,-0.09546 -0.212128,-0.212128 0,-0.11667 0.09546,-0.212127 0.212128,-0.212127 z m -0.212128,1.060638 c 0,-0.116671 0.09546,-0.212128 0.212128,-0.212128 h 0.424255 c 0.11667,0 0.2121265,0.09546 0.2121265,0.212128 0,0.11667 -0.095459,0.212127 -0.2121265,0.212127 h -0.424255 c -0.116671,0 -0.212128,-0.09546 -0.212128,-0.212127 z m 0.424256,2.969785 c -0.234667,0 -0.424256,-0.18959 -0.424256,-0.424255 0,-0.234666 0.189589,-0.424256 0.424256,-0.424256 0.234666,0 0.4242535,0.18959 0.4242535,0.424256 0,0.234665 -0.1895875,0.424255 -0.4242535,0.424255 z"
       id="path8113-9-5"
       style="stroke-width:0.0132579" />
    <path
       id="path8105-9"
       style="stroke-width:0.0716355"
       d="m 127.23058,49.285875 c -2.52873,0 -4.58473,2.055998 -4.58473,4.584733 v 4.584733 c 0,2.528736 2.056,4.584733 4.58473,4.584733 h 27.5084 c 2.52874,0 4.58473,-2.055997 4.58473,-4.584733 v -4.584733 c 0,-2.528735 -2.05599,-4.584733 -4.58473,-4.584733 z m 20.05821,5.157825 c 0.95275,0 1.71927,0.766523 1.71927,1.719275 0,0.952754 -0.76652,1.719275 -1.71927,1.719275 -0.95276,0 -1.71928,-0.766521 -1.71928,-1.719275 0,-0.952752 0.76652,-1.719275 1.71928,-1.719275 z m 5.15782,0 c 0.95275,0 1.71928,0.766523 1.71928,1.719275 0,0.952754 -0.76653,1.719275 -1.71928,1.719275 -0.95275,0 -1.71927,-0.766521 -1.71927,-1.719275 0,-0.952752 0.76652,-1.719275 1.71927,-1.719275 z" />
    <path
       id="path8105-9-2"
       style="stroke-width:0.0716355"
       d="m 127.23058,32.721161 c -2.52873,0 -4.58473,2.055998 -4.58473,4.584733 v 4.584733 c 0,2.528736 2.056,4.584733 4.58473,4.584733 h 27.5084 c 2.52874,0 4.58473,-2.055997 4.58473,-4.584733 v -4.584733 c 0,-2.528735 -2.05599,-4.584733 -4.58473,-4.584733 z m 20.05821,5.157825 c 0.95275,0 1.71927,0.766523 1.71927,1.719275 0,0.952754 -0.76652,1.719275 -1.71927,1.719275 -0.95276,0 -1.71928,-0.766521 -1.71928,-1.719275 0,-0.952752 0.76652,-1.719275 1.71928,-1.719275 z m 5.15782,0 c 0.95275,0 1.71928,0.766523 1.71928,1.719275 0,0.952754 -0.76653,1.719275 -1.71928,1.719275 -0.95275,0 -1.71927,-0.766521 -1.71927,-1.719275 0,-0.952752 0.76652,-1.719275 1.71927,-1.719275 z" />
    <path
       id="path8105-9-2-9"
       style="stroke-width:0.0716355"
       d="m 127.23058,16.627871 c -2.52873,0 -4.58473,2.055998 -4.58473,4.584733 v 4.584733 c 0,2.528736 2.056,4.584733 4.58473,4.584733 h 27.5084 c 2.52874,0 4.58473,-2.055997 4.58473,-4.584733 v -4.584733 c 0,-2.528735 -2.05599,-4.584733 -4.58473,-4.584733 z m 20.05821,5.157825 c 0.95275,0 1.71927,0.766523 1.71927,1.719275 0,0.952754 -0.76652,1.719275 -1.71927,1.719275 -0.95276,0 -1.71928,-0.766521 -1.71928,-1.719275 0,-0.952752 0.76652,-1.719275 1.71928,-1.719275 z m 5.15782,0 c 0.95275,0 1.71928,0.766523 1.71928,1.719275 0,0.952754 -0.76653,1.719275 -1.71928,1.719275 -0.95275,0 -1.71927,-0.766521 -1.71927,-1.719275 0,-0.952752 0.76652,-1.719275 1.71927,-1.719275 z" />
    <path
       id="path8105-9-2-9-7"
       style="stroke-width:0.0716355"
       d="m 71.541428,32.760119 c -2.52873,0 -4.58473,2.055998 -4.58473,4.584733 v 4.584733 c 0,2.528736 2.056,4.584733 4.58473,4.584733 h 27.5084 c 2.528742,0 4.584732,-2.055997 4.584732,-4.584733 v -4.584733 c 0,-2.528735 -2.05599,-4.584733 -4.584732,-4.584733 z m 20.05821,5.157825 c 0.95275,0 1.71927,0.766523 1.71927,1.719275 0,0.952754 -0.76652,1.719275 -1.71927,1.719275 -0.95276,0 -1.71928,-0.766521 -1.71928,-1.719275 0,-0.952752 0.76652,-1.719275 1.71928,-1.719275 z m 5.15782,0 c 0.95275,0 1.71928,0.766523 1.71928,1.719275 0,0.952754 -0.76653,1.719275 -1.71928,1.719275 -0.95275,0 -1.71927,-0.766521 -1.71927,-1.719275 0,-0.952752 0.76652,-1.719275 1.71927,-1.719275 z" />
    <path
       style="fill:#040404;fill-opacity:1;stroke:#000000;stroke-width:0.5;stroke-dasharray:4, 0.5;stroke-dashoffset:0;stroke-opacity:1;marker-start:url(#TriangleStart);marker-end:url(#marker20318)"
       d="M 27.503408,39.784329 H 62.345923"
       id="path17839" />
    <path
       style="fill:#040404;fill-opacity:1;stroke:#000000;stroke-width:0.5;stroke-dasharray:3.99998925,0.5;stroke-dashoffset:0;stroke-opacity:1;marker-start:url(#TriangleStart-6);marker-end:url(#marker20318-0)"
       d="m 105.96117,39.696599 h 14.22585"
       id="path17839-1" />
    <path
       style="fill:#040404;fill-opacity:1;stroke:#000000;stroke-width:0.470147;stroke-dasharray:3.76117, 0.470147;stroke-dashoffset:0;stroke-opacity:1;marker-start:url(#TriangleStart-6-5);marker-end:url(#marker20318-0-4)"
       d="m 105.83833,43.373434 14.49721,11.694647"
       id="path17839-1-6" />
    <path
       style="fill:#040404;fill-opacity:1;stroke:#000000;stroke-width:0.5;stroke-dasharray:3.99996781,0.5;stroke-dashoffset:0;stroke-opacity:1;marker-start:url(#TriangleStart-0);marker-end:url(#marker20318-6)"
       d="M 105.76189,35.921333 120.00818,24.761132"
       id="path17839-0" />
    <path
       style="fill:#040404;fill-opacity:1;stroke:#000000;stroke-width:0.5;stroke-dasharray:3.99999, 0.5;stroke-dashoffset:0;stroke-opacity:1;marker-start:url(#TriangleStart-6-7);marker-end:url(#marker20318-0-5)"
       d="M 176.71096,38.963682 H 162.48511"
       id="path17839-1-4" />
    <path
       style="fill:#040404;fill-opacity:1;stroke:#000000;stroke-width:0.470147;stroke-dasharray:3.76117, 0.470147;stroke-dashoffset:0;stroke-opacity:1;marker-start:url(#TriangleStart-6-5-5);marker-end:url(#marker20318-0-4-7)"
       d="M 176.8338,42.640517 162.33659,54.335164"
       id="path17839-1-6-3" />
    <path
       style="fill:#040404;fill-opacity:1;stroke:#000000;stroke-width:0.5;stroke-dasharray:3.99997, 0.5;stroke-dashoffset:0;stroke-opacity:1;marker-start:url(#TriangleStart-0-5);marker-end:url(#marker20318-6-9)"
       d="M 176.91024,35.188416 162.66395,24.028215"
       id="path17839-0-0" />
  </g>
</svg>
