<?xml version="1.0" encoding="utf-8"?>
<!-- Generator: $$$/GeneralStr/196=Adobe Illustrator 27.6.0, SVG Export Plug-In . SVG Version: 6.00 Build 0)  -->
<svg version="1.1" id="Livello_1" xmlns="http://www.w3.org/2000/svg" xmlns:xlink="http://www.w3.org/1999/xlink" x="0px" y="0px"
	 viewBox="0 0 361.3 245.3" style="enable-background:new 0 0 361.3 245.3;" xml:space="preserve">
<style type="text/css">
	.st0{fill:#2764AE;}
	.st1{fill:#FFFFFF;}
</style>
<path class="st0" d="M61.8,44.5c2,0,3.7-1.7,3.7-3.7c0-2-1.7-3.7-3.7-3.7c-2,0-3.7,1.7-3.7,3.7C58.1,42.9,59.8,44.5,61.8,44.5z
	 M80.6,45c2,0,3.7-1.7,3.7-3.7c0-2-1.7-3.7-3.7-3.7c-2,0-3.7,1.7-3.7,3.7C76.9,43.3,78.6,45,80.6,45z M86.3,55.8
	c-1.5-0.7-3.3-0.1-4,1.4c-2.1,4.3-5.5,6.3-10.6,6.3c-5.4,0-9.2-2.2-10.5-5.9c-0.5-1.6-2.2-2.4-3.8-1.9c-1.6,0.5-2.4,2.2-1.9,3.8
	c2.1,6.3,8.1,10.1,16.2,10.1c7.5,0,12.9-3.3,16-9.7C88.4,58.3,87.8,56.5,86.3,55.8z M119.5,52.4c0-23-21.9-41.8-48.7-41.8
	C43.9,10.6,22,29.3,22,52.4C22,74,41.3,91.9,66,94c1.2,2.4,2.9,4.3,4.3,5.9c4.7,5.3,13.3,14.9,2.4,45.4c-0.2,0.1-0.5,0.2-0.7,0.3
	c-13.8,7.8-30.9-4.7-31-4.8c-5.5-4.1-13.3-3-17.5,2.5c-4.1,5.5-3,13.3,2.4,17.4c0.6,0.5,8.6,6.4,19.9,9.8c-0.6,2.5-1,5-1.4,7.1
	c-0.9,4.7-1.5,9.3-2,12.9c-6.2-2.2-10.7-5.4-10.8-5.5c-5.5-4.1-13.4-3-17.5,2.5c-4.1,5.5-3,13.3,2.4,17.4c1,0.8,22.7,16.8,46.6,11.2
	c0.7,6.5,1.6,10.6,1.7,11c1.4,6.2,7.5,10.1,13.7,8.7c5.4-1.2,9-6,9-11.2c0-0.8-0.1-1.6-0.3-2.5c0-0.2-2-9.3-2-22.7
	c0-12,1.6-27.4,7.5-42.7c5.8-15.1,8.1-27.3,8.1-37.2c0-13.3-4.1-22.6-9.2-29.7C108.2,83.3,119.5,69,119.5,52.4z M70.8,76.2
	C53.8,76.2,40,65.5,40,52.4c0-13.1,13.8-23.8,30.7-23.8c16.9,0,30.7,10.7,30.7,23.8C101.5,65.5,87.7,76.2,70.8,76.2z"/>
<g>
	<path class="st0" d="M120.6,92.8c-0.3,0-0.6,0-1,0h-10.9c-0.7,0-1.2,0.1-1.2,0.7c0,0.9,3.8,11,3.8,26.7c0,11.8-4.1,22.1-4.1,22.7
		c0,1.2,1.9,1,2.9,1h4.2v0h9.6V92.8H120.6z"/>
	<path class="st0" d="M184.2,69.4c0,0,0,11.5,0,23.3l-32.4,0.1l-0.1,0c-3.7,0.7-7,1.9-9.8,3.6c-6.9,4.4-10.9,11-12,19.5
		c-0.4,7.4,1.9,13.9,6.6,19.4c4.4,4.8,10.1,7.6,16.8,8.4l0.1,0l21.4-0.1l0.1,0c6.5-1.3,11.8-4.2,15.8-8.7c3.4-4.2,5.5-9.1,6.2-14.6
		l0-0.1V69.4H184.2z M184.2,119.5c-1.2,6.5-5,10.2-11.5,11.5h-18.4c-6.5-1.2-10.2-5-11.5-11.5c0-0.1,0-0.3,0-0.4
		c0-3.1,0.7-5.8,2.2-8.2c2.1-2.9,4.8-4.6,8.1-5.3c0.4,0,31.1-0.1,31.2-0.1V119.5z"/>
	<g>
		<g>
			<g>
				<path class="st0" d="M270,116.2L270,116.2c-0.7-5.6-2.7-10.5-6.1-14.7c-4-4.5-9.3-7.4-15.8-8.7l-0.1,0l-21.6-0.1l-0.1,0
					c-6.8,0.9-12.4,3.6-16.6,8.2c-4.8,5.6-7,12.1-6.7,19.4c1,8.9,5.5,15.7,13.2,20.5l0,0c2.5,1.5,6,2.5,10.2,3.1l0.1,0H270V131
					c0,0-42.4,0-42.8,0c-0.3-0.1-2.3-0.5-2.6-0.6c-3.7-1.5-6.2-3.7-7.6-6.6c1.1,0,52.9,0,52.9,0V116.2z M245.8,105.5
					c3.2,0.4,5.9,1.8,8.3,4.3c0.4,0.5,0.8,1,1,1.3h-37c2-3.1,5-5,9.1-5.7"/>
			</g>
		</g>
	</g>
	<path class="st0" d="M342.8,116.3c-1-8.8-5.4-15.7-13.2-20.4l0,0c-2.5-1.5-6-2.5-10.2-3.1l-0.1,0h-43.6v51.1h12.8
		c0,0,0-35.5,0-38.3h13.4c0,2.8,0,38.3,0,38.3h12.8c0,0,0-35.4,0-38.2c1.8,0,4.7,0.1,4.7,0.1c0.2,0,1.1,0.1,4.4,1.7
		c3.5,2.3,5.5,5.5,6.2,9.8c0,0.3,0,26.6,0,26.6h12.8L342.8,116.3L342.8,116.3z"/>
	<g>
		<g>
			<g>
				<path class="st1" d="M128.7,161.3c-2-2.3-4.7-3.8-8-4.4l0,0l-11-0.1l0,0c-3.4,0.4-6.3,1.8-8.5,4.2c-2.3,2.6-3.4,5.7-3.4,9.1
					c0,0.2,0,0.5,0,0.7c0.5,4.4,2.5,7.7,6,9.9c1.5,0.9,3.1,1.5,5,1.8l0,0l16.9,0.1c0,0.4-0.1,0.7-0.2,1.1c-0.7,2.8-2.5,4.5-5.5,5.2
					L97.7,189v6.1H120c4.5-0.5,7.9-2.7,10.3-6.6c0.8-1.3,1.3-3,1.6-5.2l0,0v-14.5C131.5,165.8,130.4,163.4,128.7,161.3z
					 M119.6,162.8c3.5,0.7,5.5,2.7,6.2,6.2v7.6l-16.4-0.1c-1.8-0.4-3.2-1.3-4.3-2.8c-0.8-1.2-1.2-2.7-1.2-4.4c0-0.1,0-0.2,0-0.2
					c0.7-3.5,2.7-5.5,6.1-6.2"/>
			</g>
			<g>
				<path class="st0" d="M128.7,161.3c-2-2.3-4.7-3.8-8-4.4l0,0l-11-0.1l0,0c-3.4,0.4-6.3,1.8-8.5,4.2c-2.3,2.6-3.4,5.7-3.4,9.1
					c0,0.2,0,0.5,0,0.7c0.5,4.4,2.5,7.7,6,9.9c1.5,0.9,3.1,1.5,5,1.8l0,0l16.9,0.1c0,0.4-0.1,0.7-0.2,1.1c-0.7,2.8-2.5,4.5-5.5,5.2
					L97.7,189v6.1H120c4.5-0.5,7.9-2.7,10.3-6.6c0.8-1.3,1.3-3,1.6-5.2l0,0v-14.5C131.5,165.8,130.4,163.4,128.7,161.3z
					 M119.6,162.8c3.5,0.7,5.5,2.7,6.2,6.2v7.6l-16.4-0.1c-1.8-0.4-3.2-1.3-4.3-2.8c-0.8-1.2-1.2-2.7-1.2-4.4c0-0.1,0-0.2,0-0.2
					c0.7-3.5,2.7-5.5,6.1-6.2"/>
			</g>
		</g>
	</g>
	<g>
		<path class="st0" d="M185.4,156.7c-2.2,0.3-3.9,0.8-5.2,1.6c-4,2.4-6.2,5.9-6.8,10.4l0.5,0.1h-0.5v14h6.1V169
			c0-0.2,0.2-1.1,0.7-2.4c1.4-2.4,3.3-3.6,5.7-3.9l21.9,0v-6.1L185.4,156.7L185.4,156.7z"/>
	</g>
	<g>
		<path class="st0" d="M223.5,156.7L223.5,156.7c-2.2,0.3-3.9,0.8-5.2,1.6c-4,2.4-6.2,5.9-6.8,10.4l0.5,0.1h-0.5v14h6.1V169
			c0-0.2,0.2-1.1,0.7-2.4c1.4-2.4,3.3-3.6,5.7-3.9l21.9,0v-6.1H223.5z"/>
	</g>
	<g>
		<g>
			<g>
				<rect x="337.2" y="156.7" class="st0" width="6.1" height="26.1"/>
			</g>
		</g>
	</g>
	<path class="st0" d="M169.5,170.6c0-0.3,0-0.6,0-0.8c0-3.2-1-6.1-3.1-8.6l-0.4,0.3l0.4-0.3c-2.5-2.6-5.4-4.1-8.8-4.5l-21.6,0v3.2
		v2.9l21.8,0.1c2.5,0.6,4.1,1.9,5,3.9h-27.2l-0.1,0.4c-0.2,1-0.2,2-0.2,2.9c0,1.3,0.2,2.5,0.5,3.6c1.9,5.3,5.8,8.5,11.4,9.2l0,0
		h21.5v0h0.8V170.6z M147,176.6c-2.5-0.7-4.1-1.9-5-3.8h21.4v3.8"/>
	<path class="st0" d="M296.3,169.9c0,0,0-0.1,0-0.1c0,0,0-0.1,0-0.1v-0.1h0c-0.1-3.1-1.1-5.9-3.1-8.3l-0.4,0.3v0l0.4-0.3
		c-2.5-2.6-5.4-4.1-8.8-4.5l-21.6,0v3.2v2.9l21.8,0.1c2.5,0.6,4.1,1.9,5,3.9h-27.2l-0.1,0.4c-0.2,1-0.2,2-0.2,2.9
		c0,1.3,0.2,2.5,0.5,3.6c1.9,5.3,5.8,8.5,11.4,9.2l0,0h21.5v0h0.8V169.9z M290.3,172.8v3.8l-16.4-0.1c-2.5-0.7-4.1-1.9-5-3.8"/>
	<path class="st0" d="M334.4,170.2c0-0.1,0-0.3,0-0.4c0-3.2-1-6.1-3.1-8.6l-0.4,0.3l0.4-0.3c-2.5-2.6-5.4-4.1-8.8-4.5l-21.6,0v3.2
		v2.9l21.8,0.1c2.5,0.6,4.1,1.9,5,3.9h-27.2l-0.1,0.4c-0.2,1-0.2,2-0.2,2.9c0,1.3,0.2,2.5,0.5,3.6c1.9,5.3,5.8,8.5,11.4,9.2l0,0
		h21.5v0h0.8V170.2z M328.3,172.8v3.8l-16.4-0.1c-2.5-0.7-4.1-1.9-5-3.8"/>
</g>
</svg>
