<?xml version="1.0" encoding="utf-8"?>
<!-- Generator: $$$/GeneralStr/196=Adobe Illustrator 27.6.0, SVG Export Plug-In . SVG Version: 6.00 Build 0)  -->
<svg version="1.1" id="Livello_1" xmlns="http://www.w3.org/2000/svg" xmlns:xlink="http://www.w3.org/1999/xlink" x="0px" y="0px"
	 viewBox="0 0 131.3 245.3" style="enable-background:new 0 0 131.3 245.3;" xml:space="preserve">
<style type="text/css">
	.st0{fill:#2764AE;}
</style>
<path class="st0" d="M61.8,44.5c2,0,3.7-1.7,3.7-3.7c0-2-1.7-3.7-3.7-3.7c-2,0-3.7,1.7-3.7,3.7C58.1,42.9,59.8,44.5,61.8,44.5z
	 M80.6,45c2,0,3.7-1.7,3.7-3.7c0-2-1.7-3.7-3.7-3.7c-2,0-3.7,1.7-3.7,3.7C76.9,43.3,78.6,45,80.6,45z M86.3,55.8
	c-1.5-0.7-3.3-0.1-4,1.4c-2.1,4.3-5.5,6.3-10.6,6.3c-5.4,0-9.2-2.2-10.5-5.9c-0.5-1.6-2.2-2.4-3.8-1.9c-1.6,0.5-2.4,2.2-1.9,3.8
	c2.1,6.3,8.1,10.1,16.2,10.1c7.5,0,12.9-3.3,16-9.7C88.4,58.3,87.8,56.5,86.3,55.8z M119.5,52.4c0-23-21.9-41.8-48.7-41.8
	C43.9,10.6,22,29.3,22,52.4C22,74,41.3,91.9,66,94c1.2,2.4,2.9,4.3,4.3,5.9c4.7,5.3,13.3,14.9,2.4,45.4c-0.2,0.1-0.5,0.2-0.7,0.3
	c-13.8,7.8-30.9-4.7-31-4.8c-5.5-4.1-13.3-3-17.5,2.5c-4.1,5.5-3,13.3,2.4,17.4c0.6,0.5,8.6,6.4,19.9,9.8c-0.6,2.5-1,5-1.4,7.1
	c-0.9,4.7-1.5,9.3-2,12.9c-6.2-2.2-10.7-5.4-10.8-5.5c-5.5-4.1-13.4-3-17.5,2.5c-4.1,5.5-3,13.3,2.4,17.4c1,0.8,22.7,16.8,46.6,11.2
	c0.7,6.5,1.6,10.6,1.7,11c1.4,6.2,7.5,10.1,13.7,8.7c5.4-1.2,9-6,9-11.2c0-0.8-0.1-1.6-0.3-2.5c0-0.2-2-9.3-2-22.7
	c0-12,1.6-27.4,7.5-42.7c5.8-15.1,8.1-27.3,8.1-37.2c0-13.3-4.1-22.6-9.2-29.7C108.2,83.3,119.5,69,119.5,52.4z M70.8,76.2
	C53.8,76.2,40,65.5,40,52.4c0-13.1,13.8-23.8,30.7-23.8c16.9,0,30.7,10.7,30.7,23.8C101.5,65.5,87.7,76.2,70.8,76.2z"/>
</svg>
