<svg xmlns="http://www.w3.org/2000/svg" viewBox="0 0 101.1 108.5"><title>Risorsa 2</title><g id="Livello_2" data-name="Livello 2"><g id="Livello_1-2" data-name="Livello 1"><path d="M30.6,15.7,34,14.5,75.5.2a3.1,3.1,0,0,1,3.1.6,7,7,0,0,1,1.9,2.8c1.2,3.1,2.4,6.1,3.6,9.3a22.1,22.1,0,0,1,1.2,8.9c-.1,1.3-.3,2.6-.3,3.9a15,15,0,0,0,0,3c.1,1.3.2,2.6.4,3.9a14.2,14.2,0,0,0,2.8,7.1c2.8,3.6,5.5,7.3,8.3,11a46.7,46.7,0,0,1,3.8,6,5.5,5.5,0,0,1,.7,2.5,4.1,4.1,0,0,1-.4,2.2,10.9,10.9,0,0,1-2.7,3.3,19.8,19.8,0,0,1-4.1,2.8,9.6,9.6,0,0,0-3,2.3,3.4,3.4,0,0,0-.5,3.6l.9,2.3a3.8,3.8,0,0,1-.5,4.1,10.5,10.5,0,0,1-.8,1.1,3.2,3.2,0,0,0-.4,2.5l.3,1.2a3.1,3.1,0,0,1-.8,2.6c-.6.6-1.1,1.3-1.6,1.9a6.1,6.1,0,0,0-1.5,4.4,12.7,12.7,0,0,0,.6,2.8,16,16,0,0,1,.5,4.9,7.6,7.6,0,0,1-4.1,6.6,6.9,6.9,0,0,1-4,.6l-5.2-.9c-6.5-1.1-12.8-2.7-19.2-4.1L47.8,102h-.2c11.2-7.2,18.5-17.2,21.2-30.2a44.9,44.9,0,0,0-7.1-36.1C54.2,24.6,43.6,18.1,30.6,15.7Z" fill="#fff"/><path d="M12.2,57.5c-4.8,0-8-1.3-9.7-3.9S0,46.7,0,40.7.9,30.4,2.6,27.9s4.9-3.8,9.6-3.8a39,39,0,0,1,9.2,1.1v4.3a50,50,0,0,0-8.6-.8c-2.8,0-4.7.9-5.7,2.6s-1.6,4.8-1.6,9.5.5,7.8,1.5,9.5,2.9,2.5,5.7,2.5a51,51,0,0,0,8.7-.7v4.4A43.8,43.8,0,0,1,12.2,57.5Z" fill="#fff"/><path d="M25.5,29.3V23.9h5.2v5.4Zm0,27.7V33.3h5.2V57Z" fill="#fff"/><path d="M52.9,52.7h1.3v3.8a44.2,44.2,0,0,1-9.6,1.1c-3.5,0-6-.9-7.5-2.9s-2.3-5-2.3-9.2c0-8.4,3.4-12.6,10.3-12.6s9.9,3.6,9.9,10.9l-.3,3.6H40.1a6.8,6.8,0,0,0,1.3,4.4c.8.9,2.3,1.3,4.6,1.3ZM50,43.4c0-2.4-.3-4-1.1-4.9s-2-1.4-3.7-1.4a5,5,0,0,0-3.9,1.4c-.8,1-1.2,2.6-1.2,4.9Z" fill="#fff"/><path d="M20.2,95.7V63.3h5.3V95.7Z" fill="#fff"/><path d="M42.2,95.7H30.9V63.3H42.2c4.9,0,8.4,1.2,10.2,3.8s2.7,6.5,2.7,11.9a34.8,34.8,0,0,1-.5,6.9,16.9,16.9,0,0,1-1.9,5.2C50.9,94.2,47.4,95.7,42.2,95.7ZM49.7,79c0-4-.5-6.8-1.5-8.5s-3-2.6-6-2.6h-6V91.1h6c3.1,0,5.2-1.2,6.2-3.5a11.3,11.3,0,0,0,1-3.7A33.8,33.8,0,0,0,49.7,79Z" fill="#fff"/></g></g></svg>