<svg width="25" height="24" viewBox="0 0 25 24" fill="none" xmlns="http://www.w3.org/2000/svg">
<path fill-rule="evenodd" clip-rule="evenodd" d="M5.5 4H19.5C21.1567 4 22.4998 5.34295 22.5 6.99964C21.6643 6.37195 20.6256 6 19.5 6H5.5C4.37439 6 3.33566 6.37194 2.5 6.99963C2.5002 5.34295 3.84327 4 5.5 4ZM24.5 15V11V7C24.5 4.23858 22.2614 2 19.5 2H5.5C2.73858 2 0.5 4.23858 0.5 7V11V15V17C0.5 19.7614 2.73858 22 5.5 22H19.5C22.2614 22 24.5 19.7614 24.5 17V15ZM22.5 10.9996C22.4998 9.34295 21.1567 8 19.5 8H5.5C3.84327 8 2.50019 9.34295 2.5 10.9996C3.33566 10.372 4.37439 10 5.5 10H8.5H9C9.77479 10 10.3877 10.6623 10.9258 11.2439C10.9631 11.2841 11 11.324 11.0366 11.3632C11.4017 11.755 11.9222 12 12.5 12C13.0778 12 13.5983 11.755 13.9634 11.3632C14 11.324 14.0369 11.2841 14.0742 11.2439C14.6123 10.6623 15.2252 10 16 10H16.5H19.5C20.6256 10 21.6643 10.372 22.5 10.9996ZM2.5 15V17C2.5 18.6569 3.84315 20 5.5 20H19.5C21.1569 20 22.5 18.6569 22.5 17V15C22.5 13.3431 21.1569 12 19.5 12H16.8301C16.2946 12 15.8155 12.3012 15.4544 12.6966C14.723 13.4975 13.6702 14 12.5 14C11.3298 14 10.277 13.4975 9.54555 12.6966C9.18447 12.3012 8.70539 12 8.16994 12H5.5C3.84315 12 2.5 13.3431 2.5 15Z" fill="white"/>
</svg>
